<?xml version="1.0" standalone="no"?>
<!DOCTYPE svg PUBLIC "-//W3C//DTD SVG 20010904//EN"
 "http://www.w3.org/TR/2001/REC-SVG-20010904/DTD/svg10.dtd">
<svg version="1.0" xmlns="http://www.w3.org/2000/svg"
 width="512.000000pt" height="512.000000pt" viewBox="0 0 512.000000 512.000000"
 preserveAspectRatio="xMidYMid meet">
<metadata>
Created by potrace 1.14, written by Peter Selinger 2001-2017
</metadata>
<g transform="translate(0.000000,512.000000) scale(0.100000,-0.100000)"
fill="#000000" stroke="none">
<path d="M2526 4554 c22 -54 29 -159 13 -229 -7 -33 -13 -65 -15 -70 -4 -25
-79 -173 -102 -204 -14 -19 -19 -31 -11 -27 10 5 10 4 -1 -6 -9 -7 -27 -29
-40 -48 -29 -41 -62 -80 -110 -130 -19 -19 -47 -50 -62 -69 -16 -18 -28 -30
-28 -26 0 3 -19 -13 -43 -37 -58 -57 -146 -138 -151 -138 -3 0 -24 -18 -48
-41 -23 -22 -58 -52 -75 -66 -18 -14 -30 -30 -26 -36 3 -5 2 -7 -4 -4 -5 3
-66 -50 -136 -119 -70 -68 -125 -124 -123 -124 1 0 -22 -26 -53 -57 -31 -32
-76 -83 -101 -113 -25 -30 -53 -64 -62 -74 -10 -10 -14 -24 -11 -30 3 -6 2 -8
-2 -3 -9 7 -92 -102 -87 -115 1 -5 -2 -8 -7 -8 -5 0 -28 -33 -52 -72 -24 -40
-47 -75 -51 -76 -5 -2 -6 -8 -2 -13 3 -5 0 -9 -7 -9 -7 0 -10 -3 -6 -6 3 -3
-8 -28 -24 -55 -16 -28 -29 -52 -29 -55 0 -2 -9 -23 -20 -47 -85 -184 -133
-401 -134 -612 0 -60 3 -132 7 -160 14 -94 19 -120 28 -136 4 -9 6 -19 3 -22
-3 -2 2 -21 10 -41 8 -20 13 -36 11 -36 -7 0 53 -139 89 -207 20 -36 32 -71
29 -77 -3 -6 -3 -8 2 -4 10 10 34 -21 35 -44 0 -10 6 -18 13 -18 6 0 20 -15
30 -32 l19 -33 -23 20 -23 20 20 -27 c10 -14 23 -25 28 -25 5 1 11 -4 13 -11
3 -8 -2 -10 -14 -6 -14 5 -15 4 -3 -4 10 -8 19 -7 29 1 12 10 13 9 3 -10 -9
-16 -9 -24 0 -29 6 -4 8 -3 5 3 -3 5 0 10 8 10 11 0 12 -5 3 -21 -11 -20 -10
-20 7 -6 10 8 16 10 12 3 -11 -17 34 -57 46 -41 5 9 6 6 3 -8 -4 -13 1 -29 14
-44 11 -13 18 -30 15 -38 -4 -12 -3 -13 9 -3 18 15 40 5 32 -14 -3 -8 4 -17
15 -20 11 -4 18 -9 15 -12 -3 -4 -1 -12 5 -20 10 -11 15 -11 27 -1 13 11 14
11 7 -1 -6 -11 -4 -13 8 -8 20 7 22 -4 6 -20 -9 -9 -7 -10 10 -6 13 3 21 1 21
-7 0 -10 3 -10 15 0 9 7 18 10 22 6 3 -3 1 -6 -5 -6 -7 0 -12 -7 -12 -15 0
-14 12 -20 34 -16 5 1 6 -5 3 -13 -4 -9 -1 -18 5 -22 6 -4 8 -3 5 3 -10 16 20
24 32 9 7 -8 7 -16 1 -24 -6 -7 -7 -10 -4 -7 4 3 13 0 21 -7 11 -9 12 -7 6 8
-6 17 -5 17 10 6 9 -8 13 -21 10 -30 -4 -13 -2 -12 11 3 10 11 15 15 12 9 -7
-14 21 -27 36 -17 7 3 8 1 4 -5 -4 -7 -2 -12 4 -12 7 0 10 -7 6 -17 -5 -15 -3
-14 10 2 16 20 16 20 11 -2 -7 -30 1 -30 13 0 l9 22 0 -22 c1 -22 12 -27 49
-26 9 1 10 -3 2 -12 -9 -11 -6 -12 11 -8 17 5 20 3 14 -7 -5 -9 -4 -11 4 -6 9
6 9 11 0 24 -7 10 2 2 20 -17 17 -18 31 -29 31 -23 0 6 -4 13 -9 16 -5 3 -11
15 -14 26 -3 11 -1 18 4 14 5 -3 9 -12 9 -20 0 -9 5 -12 12 -8 6 4 8 3 5 -2
-7 -12 1 -23 27 -44 12 -9 17 -10 12 -2 -4 6 -2 12 3 12 6 0 11 5 11 11 0 8
-4 8 -14 0 -9 -8 -16 -8 -20 -2 -8 12 4 19 25 16 9 -2 16 3 16 9 0 8 -10 11
-25 8 -17 -3 -23 -1 -18 7 4 6 2 11 -4 11 -6 0 -8 4 -5 10 3 5 1 10 -5 10 -6
0 -9 4 -5 9 9 15 -28 31 -46 20 -7 -5 -18 -9 -24 -9 -5 0 -4 4 4 9 9 6 10 11
2 15 -6 4 -8 12 -5 18 5 8 1 9 -10 5 -10 -4 -15 -3 -11 3 3 6 1 10 -4 10 -6 0
-11 4 -11 8 0 5 7 9 15 9 8 0 15 -4 15 -8 0 -4 15 -9 33 -12 17 -3 45 -9 61
-13 21 -5 27 -4 22 5 -4 6 -16 11 -27 11 -10 0 -19 4 -19 8 0 4 -13 15 -28 24
-32 19 -180 158 -168 158 4 0 0 7 -8 16 -9 8 -13 20 -10 26 4 7 2 8 -4 4 -7
-4 -12 -1 -12 8 0 9 -5 16 -11 16 -5 0 -7 4 -4 10 3 5 2 10 -3 10 -5 0 -8 11
-7 25 2 14 -2 25 -8 25 -5 0 -7 3 -4 7 4 3 1 13 -6 21 -10 13 -9 14 2 7 11 -6
13 -4 8 9 -4 10 -7 20 -7 22 0 3 -5 2 -12 -2 -7 -5 -8 -3 -4 5 5 7 14 10 22 7
8 -3 14 -1 14 4 0 9 -15 14 -33 11 -5 -1 -6 3 -2 9 3 6 10 8 15 5 5 -3 12 0
16 6 4 8 3 9 -4 5 -7 -4 -12 -2 -12 4 0 6 -5 8 -12 4 -10 -6 -10 -5 -1 8 7 8
9 19 5 23 -4 5 -1 5 6 1 7 -4 9 -13 6 -19 -4 -7 -3 -9 1 -4 12 11 14 47 2 40
-6 -4 -8 1 -4 11 4 10 7 20 7 22 0 3 6 2 13 -2 9 -5 9 -4 0 6 -6 7 -9 20 -6
29 4 14 3 14 -6 1 -8 -12 -10 -11 -8 8 1 25 7 27 27 10 12 -11 12 -10 0 6 -22
28 -20 44 6 61 14 9 22 20 18 26 -3 5 0 17 7 25 7 9 14 26 16 37 2 18 1 19 -7
7 -5 -8 -10 -10 -10 -4 0 5 5 15 12 22 9 9 9 12 0 12 -7 0 1 14 18 30 17 17
32 39 33 50 1 11 7 22 15 25 7 3 10 9 7 15 -4 6 1 7 11 3 12 -5 15 -3 9 6 -5
10 -1 12 16 7 13 -3 18 -3 12 0 -18 8 -16 27 1 21 10 -4 13 1 11 19 -2 19 0
22 11 13 17 -14 19 2 3 18 -8 8 -3 11 21 9 30 -2 31 -1 14 12 -18 13 -17 14
10 8 26 -6 27 -6 12 9 -14 15 -14 35 0 35 3 0 3 -4 -1 -9 -3 -6 3 -9 13 -8 13
1 18 7 14 19 -2 10 1 18 7 18 7 0 9 -4 6 -10 -3 -5 1 -10 10 -10 9 0 14 -4 11
-8 -2 -4 8 -23 24 -41 16 -18 32 -41 35 -52 4 -11 11 -17 16 -14 5 4 9 1 9 -4
0 -6 -6 -11 -12 -11 -9 0 -8 -3 2 -9 8 -6 18 -7 24 -4 5 3 6 1 2 -6 -4 -6 -11
-9 -16 -6 -5 3 -12 0 -16 -6 -4 -7 -3 -9 4 -5 6 3 13 2 17 -4 3 -5 1 -10 -6
-10 -9 0 -7 -4 3 -13 9 -6 19 -19 22 -27 3 -8 4 -5 2 8 -2 12 0 20 5 16 5 -3
9 -14 9 -26 0 -17 2 -18 15 -8 13 11 14 10 9 -5 -5 -13 -4 -16 4 -11 15 9 16
-6 2 -20 -12 -12 38 -13 56 -2 5 4 11 -3 11 -15 2 -17 0 -19 -7 -7 -5 8 -10
10 -10 4 0 -6 7 -17 15 -24 14 -11 19 -7 16 12 -2 16 27 -4 37 -25 6 -12 11
-16 11 -9 1 7 5 11 10 7 5 -3 13 0 17 6 5 8 3 9 -7 4 -8 -5 -11 -4 -6 1 10 11
97 12 90 2 -2 -5 1 -8 7 -8 6 0 8 -5 4 -12 -4 -6 -3 -8 4 -4 6 3 9 18 6 31 -2
14 0 25 6 25 5 0 9 -3 9 -7 -4 -22 3 -23 22 -2 17 21 19 21 10 3 -8 -16 -7
-21 4 -21 8 0 13 5 12 11 -1 5 5 10 13 11 8 0 14 8 12 18 -2 11 2 15 13 11 10
-4 15 0 15 13 0 10 10 24 23 32 21 13 22 13 4 -6 -14 -16 -14 -20 -2 -20 8 0
12 4 9 8 -2 4 0 10 5 14 6 3 8 12 5 20 -4 8 1 18 10 21 22 8 20 25 -1 17 -13
-4 -11 1 6 15 14 13 19 22 11 22 -9 0 -7 5 5 13 14 11 15 16 5 22 -9 5 -11 4
-6 -3 4 -7 2 -12 -3 -12 -14 0 -14 17 -1 25 6 3 10 11 10 16 0 6 -6 7 -12 3
-9 -5 -9 -2 1 9 9 11 10 17 2 17 -15 0 -14 27 2 33 8 3 6 11 -8 27 -11 13 -14
20 -7 16 12 -7 12 -4 1 15 -7 13 -12 27 -11 31 1 4 -5 5 -14 1 -8 -3 -14 -2
-13 3 4 23 -2 45 -11 39 -5 -3 -10 0 -10 9 0 8 -6 17 -12 20 -10 5 -10 7 0 12
17 8 15 22 -4 20 -10 0 -21 14 -29 39 -8 22 -19 41 -25 43 -5 2 -10 8 -10 14
0 6 -11 21 -26 34 -14 13 -23 24 -21 24 3 0 -13 19 -34 42 -22 24 -39 49 -39
55 0 7 -7 13 -15 13 -8 0 -15 5 -15 11 0 5 6 7 13 4 6 -4 3 2 -8 12 -31 27
-35 48 -17 74 15 23 15 23 -2 10 -17 -14 -17 -13 -13 16 3 18 -1 40 -9 52 -9
12 -11 22 -4 26 5 3 10 11 10 16 0 6 -6 7 -12 3 -9 -6 -9 -3 0 9 8 9 11 21 8
26 -4 5 -1 13 5 17 7 4 9 3 5 -4 -3 -6 -1 -14 6 -18 7 -4 10 -4 6 1 -4 4 -2
15 5 23 9 13 9 14 0 8 -8 -4 -13 -1 -13 9 0 9 4 14 9 11 4 -3 7 5 6 19 -3 18
1 23 16 20 11 -2 17 0 14 6 -4 5 -10 7 -14 5 -4 -3 -13 -1 -21 5 -11 6 -7 9
14 9 28 0 29 1 10 15 -18 14 -18 14 3 10 13 -2 26 1 29 7 4 6 3 8 -3 5 -6 -4
-13 0 -17 8 -3 8 -1 17 5 20 5 4 7 11 4 16 -4 5 -2 9 4 9 5 0 12 -6 14 -12 4
-10 6 -10 6 0 1 8 6 10 14 6 6 -4 9 -4 5 0 -3 4 0 19 7 33 8 15 11 31 8 37 -3
6 4 1 16 -11 11 -12 21 -27 21 -33 0 -5 5 -10 11 -10 6 0 8 -7 5 -16 -3 -8 -2
-12 4 -9 5 3 14 -3 20 -14 9 -18 8 -20 -7 -15 -10 3 -3 -3 15 -13 18 -11 29
-22 25 -26 -13 -14 -11 -37 4 -37 13 0 13 3 2 18 -11 14 -11 15 1 5 7 -7 15
-23 17 -35 2 -13 8 -24 13 -26 6 -2 10 -9 10 -17 0 -7 7 -18 15 -25 8 -7 13
-16 10 -19 -2 -4 3 -8 11 -8 11 0 10 5 -6 22 -19 20 -19 21 0 21 10 0 16 -4
13 -9 -2 -4 0 -14 6 -21 6 -7 8 -22 5 -32 -6 -18 -6 -18 8 -1 12 17 16 17 27
4 6 -9 13 -25 14 -36 1 -11 3 -18 5 -16 2 2 13 -5 25 -15 17 -16 23 -17 36 -7
12 10 14 9 8 -6 -4 -11 -3 -16 3 -12 5 3 17 -3 27 -15 10 -11 22 -20 28 -20 5
0 3 5 -5 10 -8 5 -10 10 -5 10 13 0 35 -20 35 -32 0 -4 -8 -5 -17 -1 -10 3
-15 3 -11 -1 3 -4 19 -9 34 -11 16 -1 30 -8 32 -14 3 -9 8 -8 20 1 12 10 14
10 8 1 -8 -14 17 -57 27 -46 4 3 0 11 -8 17 -11 8 -12 15 -4 26 9 13 10 12 5
-2 -5 -16 3 -22 25 -20 3 1 6 -6 6 -14 0 -7 -5 -14 -10 -14 -26 0 8 -14 37
-15 42 -2 57 -12 49 -31 -5 -14 -3 -14 14 -6 16 9 26 6 56 -19 22 -18 42 -27
49 -23 9 6 9 3 -1 -9 -9 -12 -10 -17 -2 -17 7 0 10 -4 7 -8 -8 -13 37 -12 53
1 11 9 13 9 8 0 -4 -6 -3 -14 2 -18 6 -3 7 -13 4 -23 -6 -15 -3 -14 18 3 13
11 18 13 12 5 -7 -8 -13 -21 -12 -29 0 -11 2 -12 6 -3 2 6 9 12 15 12 6 0 7
-7 4 -16 -5 -14 -4 -15 9 -4 13 11 14 10 9 -5 -6 -15 -3 -16 17 -10 21 7 22 6
10 -9 -7 -9 -10 -16 -5 -17 5 0 18 -3 29 -5 11 -3 26 -6 32 -6 10 -1 10 -4 0
-17 -10 -12 -9 -13 2 -6 11 6 13 4 7 -10 -5 -15 -4 -16 9 -5 11 9 15 9 15 1 0
-7 5 -9 10 -6 14 9 12 -8 -2 -25 -11 -12 -10 -12 4 -1 15 11 19 11 24 -3 5
-12 10 -14 19 -6 10 8 12 3 9 -20 -2 -16 1 -30 7 -30 6 0 7 5 4 10 -3 6 -1 10
4 10 6 0 11 -5 11 -10 0 -6 5 -9 12 -8 7 2 12 -4 13 -12 0 -8 7 -15 15 -15 8
0 15 -7 15 -15 1 -8 5 -14 11 -13 6 1 9 -11 8 -27 -1 -16 1 -29 5 -28 21 2 32
-5 47 -33 11 -23 12 -29 2 -24 -7 3 -5 0 4 -8 10 -8 19 -23 21 -33 1 -10 7
-26 12 -34 5 -8 10 -23 11 -35 2 -11 7 -40 12 -65 11 -60 7 -197 -8 -263 -12
-48 -67 -186 -80 -197 -3 -3 -17 -23 -31 -45 -60 -92 -197 -211 -311 -270 -21
-11 -38 -23 -38 -27 0 -4 -6 -5 -14 -2 -8 3 -17 1 -20 -5 -9 -13 52 -5 70 10
8 6 14 9 14 6 0 -3 28 5 63 18 34 13 85 31 112 42 28 10 52 20 55 23 12 12 51
30 65 30 8 0 15 4 15 9 0 10 57 35 77 34 7 0 11 2 10 6 -1 3 1 6 4 6 3 0 13 6
22 14 10 7 17 10 17 6 0 -11 -41 -45 -53 -45 -6 0 -2 -6 9 -14 18 -14 18 -15
-6 -12 -20 2 -26 -2 -27 -17 -1 -11 -8 -24 -15 -28 -7 -5 -13 -14 -13 -21 0
-7 -9 -14 -20 -17 -21 -4 -83 -51 -68 -51 5 0 14 5 20 11 8 8 13 7 18 -2 5 -7
4 -10 -2 -6 -6 4 -16 0 -23 -8 -6 -7 -17 -12 -24 -9 -15 6 -48 -29 -44 -47 2
-10 -5 -13 -21 -11 -24 4 -24 3 -8 -22 21 -32 12 -34 -15 -4 -11 13 -17 17
-13 11 3 -7 1 -13 -4 -13 -6 0 -11 5 -11 11 0 5 -5 7 -11 3 -8 -4 -7 -9 2 -15
11 -7 11 -9 -2 -9 -9 0 -20 -7 -23 -16 -3 -8 -10 -12 -16 -9 -6 4 -7 -1 -3
-11 5 -13 3 -15 -7 -9 -9 6 -11 4 -5 -5 6 -10 11 -9 22 6 8 10 16 18 18 17 3
-2 6 -3 8 -2 19 6 37 6 37 0 0 -4 7 -8 15 -8 8 0 12 4 10 8 -3 4 2 10 11 13 9
3 14 12 11 19 -3 8 4 13 18 13 13 0 21 -4 19 -8 -3 -5 -10 -5 -16 -2 -7 5 -8
2 -3 -6 6 -10 14 -7 30 14 16 21 25 25 30 16 6 -9 4 -11 -5 -5 -9 6 -11 4 -5
-4 5 -9 10 -10 18 -2 7 7 6 16 -4 28 -13 16 -12 17 4 4 9 -7 17 -10 17 -7 0 4
9 2 21 -4 18 -10 19 -10 10 7 -8 17 -6 19 22 17 30 -2 31 -1 13 12 -28 20 -6
18 23 -2 23 -16 23 -16 11 7 -7 13 -9 21 -5 17 4 -4 14 0 22 10 12 16 13 16
11 0 -2 -9 1 -17 6 -18 6 0 11 7 12 16 2 9 11 24 20 33 17 15 17 15 5 -1 -10
-13 -10 -18 -2 -18 6 0 14 7 17 15 4 8 10 15 16 15 5 0 7 -4 3 -9 -3 -5 0 -13
7 -17 7 -4 10 -4 6 1 -12 13 11 34 30 28 14 -4 15 -3 2 5 -9 7 -18 8 -26 1 -8
-7 -14 -6 -19 1 -4 6 -3 10 2 9 21 -3 53 15 59 34 6 18 7 18 16 4 5 -10 14
-17 21 -17 8 0 8 3 -2 9 -10 7 -10 10 -1 16 7 4 17 1 22 -6 8 -11 9 -10 4 4
-3 11 0 17 9 17 8 0 15 8 15 17 0 9 3 13 7 10 3 -4 15 5 25 20 10 16 18 23 18
18 0 -6 -3 -15 -7 -21 -5 -5 2 1 15 14 13 12 28 19 34 16 7 -5 8 -2 2 7 -12
20 -14 40 -3 33 5 -3 7 -10 3 -15 -6 -11 41 -7 52 4 4 3 -3 5 -15 2 -11 -2
-21 0 -21 6 0 5 7 9 15 9 13 0 19 12 16 32 0 4 6 5 14 2 18 -7 20 12 3 20 -9
4 -8 5 2 5 35 -3 48 2 55 19 5 14 4 15 -6 5 -7 -7 -18 -13 -23 -13 -6 0 0 7
12 16 12 8 20 20 17 25 -3 5 1 6 9 3 9 -3 13 -11 9 -17 -3 -6 -1 -7 6 -3 6 4
8 12 5 18 -5 8 -1 9 11 4 16 -6 16 -4 4 11 -13 15 -12 16 11 10 24 -6 24 -5 6
8 -11 8 -14 15 -7 15 7 0 9 4 6 10 -3 6 1 7 9 4 9 -3 16 -1 16 5 0 6 -5 11
-12 11 -6 0 -8 3 -5 6 4 4 13 1 22 -6 9 -7 18 -10 22 -6 3 3 2 6 -4 6 -16 0
-24 28 -11 36 7 4 8 3 4 -4 -4 -7 -2 -12 3 -12 6 0 11 7 11 16 0 8 4 12 10 9
6 -4 7 1 3 12 -6 15 -5 16 9 5 14 -11 16 -10 11 7 -3 12 -10 18 -16 14 -6 -3
-7 -1 -3 6 4 6 12 9 17 6 5 -4 9 1 9 9 0 9 8 16 18 16 11 0 13 3 5 8 -8 5 -8
12 3 26 8 11 14 16 14 10 0 -5 5 -2 10 6 6 10 4 20 -7 32 -10 11 -12 18 -5 18
7 0 12 -4 12 -10 0 -5 5 -10 11 -10 6 0 8 9 4 22 -6 16 -4 20 7 16 9 -4 15 2
16 20 1 14 7 31 12 36 15 15 12 24 -7 29 -17 4 -17 5 0 6 10 0 15 5 12 11 -3
5 0 7 7 5 9 -4 14 2 15 16 2 18 0 19 -14 7 -15 -12 -15 -11 -2 10 8 12 17 22
21 22 5 0 8 5 8 11 0 5 -4 8 -9 4 -5 -3 -13 0 -17 6 -4 7 -3 9 3 6 6 -4 17 0
24 9 10 13 10 17 -2 24 -12 8 -12 11 0 22 11 11 13 11 6 -1 -5 -9 -4 -12 3 -7
16 10 16 39 0 30 -7 -4 -4 3 7 16 11 13 15 20 9 17 -7 -4 -14 -1 -17 7 -4 10
1 12 16 9 17 -4 19 -2 8 5 -8 6 -15 26 -16 46 0 26 3 32 11 25 8 -7 15 -6 20
2 4 8 3 9 -4 5 -7 -4 -12 -1 -12 9 0 10 -5 13 -12 9 -7 -4 -4 3 6 15 15 16 16
20 5 16 -10 -4 -16 0 -16 9 0 8 5 12 11 10 6 -2 11 8 11 25 0 21 -4 27 -15 23
-13 -5 -13 -3 -1 11 11 14 11 17 0 17 -11 0 -11 2 1 10 10 6 11 10 3 10 -7 0
-13 5 -13 11 0 5 5 7 12 3 8 -5 8 -3 2 7 -12 19 -12 62 1 72 6 5 3 7 -7 3 -21
-6 -23 4 -5 23 9 11 9 12 0 7 -7 -4 -21 -2 -30 4 -14 9 -14 10 -2 7 12 -4 15
0 11 19 -3 16 0 24 9 24 7 0 4 7 -9 16 -12 8 -22 24 -22 35 0 16 -5 19 -22 15
-16 -4 -14 -2 5 6 34 15 35 28 1 22 -25 -5 -25 -4 -9 12 16 16 16 18 -7 37
-12 10 -18 16 -11 13 6 -4 15 -1 19 5 4 7 3 9 -2 6 -5 -3 -21 11 -34 31 -14
20 -29 40 -35 44 -6 5 -6 8 1 8 6 0 19 -10 28 -23 l17 -22 -11 23 c-6 13 -18
26 -25 28 -14 6 -31 41 -27 56 1 5 -2 8 -7 8 -9 0 -28 44 -20 46 2 0 -4 8 -14
18 -9 10 -15 22 -12 27 4 5 0 9 -8 9 -8 0 -17 10 -21 23 -3 12 -14 32 -26 44
-11 12 -20 26 -20 31 0 4 -8 17 -18 28 -9 10 -33 39 -52 64 -46 59 -204 216
-241 237 -16 10 -29 20 -29 24 0 4 -15 16 -32 28 -18 11 -42 26 -53 33 -11 7
-22 16 -25 19 -12 13 -134 82 -146 82 -7 0 -11 4 -9 8 4 5 -17 19 -29 19 -2 0
-3 -19 -3 -43 0 -125 -133 -237 -282 -237 -60 0 -146 32 -181 67 -25 25 -26
29 -11 41 9 7 11 11 4 8 -28 -14 -39 4 -37 62 1 31 -3 63 -10 71 -8 11 -8 13
0 8 15 -9 25 38 11 52 -6 6 -8 11 -5 11 4 0 15 -8 24 -17 15 -16 17 -16 12 -2
-4 9 -1 22 5 28 7 7 8 12 2 11 -5 -2 -17 -2 -25 -1 -13 1 -13 3 0 10 8 6 17 8
20 6 4 -2 7 2 7 10 0 8 -4 15 -9 15 -4 0 -8 -4 -8 -10 0 -5 -5 -10 -10 -10 -6
0 -5 8 2 19 7 11 16 18 20 15 4 -3 5 3 1 12 -5 13 -3 15 8 9 9 -6 8 0 -4 19
-18 27 -18 27 1 17 17 -9 19 -7 18 12 -1 13 4 21 12 20 17 -4 15 2 -5 18 -14
12 -16 12 -8 0 5 -10 4 -12 -4 -7 -14 9 -3 29 13 23 7 -3 13 1 13 9 0 7 -4 11
-9 8 -5 -4 -4 3 3 14 7 12 17 18 23 15 5 -3 6 -1 2 6 -4 6 -11 9 -16 6 -5 -3
-12 -1 -15 5 -4 6 -1 9 6 8 6 -2 14 3 16 10 3 8 -2 10 -14 6 -17 -5 -17 -5 0
6 9 6 23 8 30 4 9 -5 9 -4 0 6 -10 11 -9 16 5 27 9 8 12 12 5 9 -7 -4 -11 1
-10 14 1 13 6 19 16 15 11 -4 12 -3 1 10 -7 8 -9 15 -4 15 4 0 3 5 -4 12 -7 7
-8 17 -1 30 7 13 6 18 -3 18 -10 0 -10 2 1 9 7 5 11 14 7 20 -4 6 -2 9 6 6 9
-4 14 2 15 15 1 11 -3 20 -8 20 -6 0 -7 -4 -4 -10 3 -5 2 -10 -3 -10 -6 0 -9
11 -8 24 1 20 4 22 15 13 12 -9 13 -9 7 1 -4 7 -2 20 6 29 12 15 11 15 -10 4
-13 -7 -26 -10 -30 -7 -3 3 0 6 5 6 12 0 12 18 0 38 -5 6 -4 12 0 12 5 0 15
-6 23 -12 12 -11 12 -10 0 5 -12 16 -12 20 1 29 11 8 10 9 -4 4 -11 -3 -20 0
-23 9 -4 8 -11 12 -18 8 -6 -3 -4 2 5 13 18 22 14 58 -5 51 -10 -4 -12 5 -9
30 2 19 0 32 -5 30 -4 -3 -9 6 -10 21 -1 14 -6 28 -11 31 -4 3 -7 16 -6 28 1
15 -3 19 -14 15 -13 -5 -14 -3 -3 10 14 18 6 48 -13 48 -18 0 -38 27 -26 35 7
4 7 12 -1 25 -7 10 -15 17 -19 14 -10 -6 -29 52 -21 62 4 4 2 4 -4 1 -6 -3
-18 7 -28 24 -9 16 -14 29 -11 29 3 0 -4 10 -15 23 -12 12 -30 37 -41 55 -12
17 -26 32 -31 32 -6 0 -9 3 -5 6 6 6 -17 34 -87 108 -21 23 -36 34 -32 26 4
-8 1 -6 -8 5 -23 31 -49 56 -68 66 -16 9 -16 7 -2 -27z m412 -512 c2 -7 -1
-12 -8 -12 -6 0 -9 4 -6 9 4 5 1 12 -4 14 -6 3 -5 4 2 3 6 -1 14 -8 16 -14z
m-618 -1408 c0 -8 -19 -13 -24 -6 -3 5 1 9 9 9 8 0 15 -2 15 -3z m304 -305
c-2 -4 4 -12 13 -18 10 -5 15 -12 12 -15 -3 -3 -15 5 -27 17 -17 18 -19 24 -8
24 8 0 13 -4 10 -8z m286 -184 c0 -2 -9 -3 -19 -2 -11 0 -18 5 -15 9 4 6 34 0
34 -7z m1395 -105 c3 -5 1 -10 -4 -10 -6 0 -11 5 -11 10 0 6 2 10 4 10 3 0 8
-4 11 -10z m25 -114 c0 -3 -4 -8 -10 -11 -5 -3 -10 -1 -10 4 0 6 5 11 10 11 6
0 10 -2 10 -4z m-1793 -222 c-3 -3 -12 -4 -19 -1 -8 3 -5 6 6 6 11 1 17 -2 13
-5z m963 -24 c0 -5 -2 -10 -4 -10 -3 0 -8 5 -11 10 -3 6 -1 10 4 10 6 0 11 -4
11 -10z m-1436 -159 c3 -5 -1 -11 -9 -14 -9 -4 -12 -1 -8 9 6 16 10 17 17 5z
m-384 -165 c0 -3 -4 -8 -10 -11 -5 -3 -10 -1 -10 4 0 6 5 11 10 11 6 0 10 -2
10 -4z m2580 -42 c0 -8 -19 -13 -24 -6 -3 5 1 9 9 9 8 0 15 -2 15 -3z m-2600
-8 c0 -3 -4 -8 -10 -11 -5 -3 -10 -1 -10 4 0 6 5 11 10 11 6 0 10 -2 10 -4z
m-233 -551 c0 -8 -4 -12 -9 -9 -5 3 -6 10 -3 15 9 13 12 11 12 -6z m340 -110
c0 -8 -4 -12 -9 -9 -5 3 -6 10 -3 15 9 13 12 11 12 -6z m1710 1 c0 -8 -6 -12
-15 -9 -11 5 -11 7 0 14 7 5 13 9 14 9 0 0 1 -6 1 -14z m-85 -63 c-6 -3 -9
-10 -6 -15 4 -7 2 -8 -5 -4 -9 6 -9 11 0 22 6 8 15 12 18 8 3 -4 0 -9 -7 -11z
m-1515 -28 c0 -11 -4 -12 -14 -4 -7 6 -13 15 -13 20 0 5 6 6 13 3 8 -3 14 -11
14 -19z m-87 -15 c0 -5 -2 -10 -4 -10 -3 0 -8 5 -11 10 -3 6 -1 10 4 10 6 0
11 -4 11 -10z m1526 -29 c-4 -5 0 -11 6 -14 7 -3 3 -4 -9 -4 -25 1 -30 12 -10
20 18 8 19 8 13 -2z"/>
<path d="M2907 4089 c7 -7 15 -10 18 -7 3 3 -2 9 -12 12 -14 6 -15 5 -6 -5z"/>
<path d="M2990 3886 c0 -2 7 -7 16 -10 8 -3 12 -2 9 4 -6 10 -25 14 -25 6z"/>
<path d="M3016 3798 c3 -5 10 -6 15 -3 13 9 11 12 -6 12 -8 0 -12 -4 -9 -9z"/>
<path d="M3035 3584 c2 -4 0 -14 -5 -24 -6 -12 -5 -17 4 -17 13 0 15 32 3 42
-4 3 -5 2 -2 -1z"/>
<path d="M2916 3062 c-3 -5 1 -9 9 -9 8 0 12 4 9 9 -3 4 -7 8 -9 8 -2 0 -6 -4
-9 -8z"/>
<path d="M2915 3000 c-3 -5 -1 -10 4 -10 6 0 11 5 11 10 0 6 -2 10 -4 10 -3 0
-8 -4 -11 -10z"/>
<path d="M2915 2951 c-3 -5 -2 -12 3 -15 5 -3 9 1 9 9 0 17 -3 19 -12 6z"/>
<path d="M2215 2380 c3 -5 8 -10 11 -10 2 0 4 5 4 10 0 6 -5 10 -11 10 -5 0
-7 -4 -4 -10z"/>
<path d="M2560 2361 c0 -6 4 -13 10 -16 6 -3 7 1 4 9 -7 18 -14 21 -14 7z"/>
<path d="M2921 2114 c0 -11 3 -14 6 -6 3 7 2 16 -1 19 -3 4 -6 -2 -5 -13z"/>
<path d="M2970 2094 c0 -6 7 -17 15 -24 8 -7 15 -9 15 -6 0 4 6 1 14 -6 8 -7
11 -17 8 -22 -3 -5 0 -6 7 -2 9 6 8 13 -5 27 -9 11 -19 17 -22 14 -3 -2 -11 3
-18 13 -7 9 -14 12 -14 6z"/>
<path d="M3114 2002 c3 -5 0 -13 -6 -15 -9 -4 -10 -6 -1 -6 17 -1 25 16 12 25
-7 4 -9 3 -5 -4z"/>
<path d="M2540 1676 c0 -2 7 -7 16 -10 8 -3 12 -2 9 4 -6 10 -25 14 -25 6z"/>
<path d="M1746 1493 c-6 -14 -5 -15 5 -6 7 7 10 15 7 18 -3 3 -9 -2 -12 -12z"/>
<path d="M1702 1430 c-7 -11 -9 -20 -4 -20 4 0 13 9 20 20 7 11 9 20 4 20 -4
0 -13 -9 -20 -20z"/>
<path d="M2267 1365 c-3 -6 3 -11 12 -11 10 0 18 5 18 11 0 7 -6 12 -13 12 -7
0 -15 -5 -17 -12z"/>
<path d="M1247 899 c7 -7 15 -10 18 -7 3 3 -2 9 -12 12 -14 6 -15 5 -6 -5z"/>
<path d="M3990 899 c0 -5 5 -7 10 -4 6 3 10 8 10 11 0 2 -4 4 -10 4 -5 0 -10
-5 -10 -11z"/>
<path d="M1275 880 c-3 -5 -1 -10 4 -10 6 0 11 5 11 10 0 6 -2 10 -4 10 -3 0
-8 -4 -11 -10z"/>
<path d="M3733 691 c0 -11 5 -18 9 -15 4 3 5 11 1 19 -7 21 -12 19 -10 -4z"/>
<path d="M3478 683 c7 -3 16 -2 19 1 4 3 -2 6 -13 5 -11 0 -14 -3 -6 -6z"/>
<path d="M1570 640 c0 -5 5 -10 11 -10 5 0 7 5 4 10 -3 6 -8 10 -11 10 -2 0
-4 -4 -4 -10z"/>
<path d="M1830 599 c0 -5 5 -7 10 -4 6 3 10 8 10 11 0 2 -4 4 -10 4 -5 0 -10
-5 -10 -11z"/>
<path d="M3330 566 c0 -2 7 -7 16 -10 8 -3 12 -2 9 4 -6 10 -25 14 -25 6z"/>
<path d="M1956 494 c-8 -21 -8 -21 12 -29 13 -5 14 -3 5 6 -6 6 -9 18 -6 25 3
8 3 14 0 14 -3 0 -8 -7 -11 -16z"/>
<path d="M3166 458 c3 -5 10 -6 15 -3 13 9 11 12 -6 12 -8 0 -12 -4 -9 -9z"/>
</g>
</svg>
