<svg width="501" height="437" viewBox="0 0 501 437" fill="none" xmlns="http://www.w3.org/2000/svg">
<path d="M234.024 436.057C355.776 436.057 454.475 425.398 454.475 412.249C454.475 399.1 355.776 388.441 234.024 388.441C112.272 388.441 13.5723 399.1 13.5723 412.249C13.5723 425.398 112.272 436.057 234.024 436.057Z" fill="#ED4322"/>
<path opacity="0.5" d="M234.024 436.057C355.776 436.057 454.475 425.398 454.475 412.249C454.475 399.1 355.776 388.441 234.024 388.441C112.272 388.441 13.5723 399.1 13.5723 412.249C13.5723 425.398 112.272 436.057 234.024 436.057Z" fill="white"/>
<path d="M500 105.869H392.543V389.596H500V105.869Z" fill="white" stroke="#263238" stroke-width="0.75" stroke-miterlimit="10"/>
<path d="M492.145 113.408H400.398V186.465H492.145V113.408Z" stroke="#263238" stroke-width="0.75" stroke-miterlimit="10"/>
<path d="M492.55 203.658H400.804V276.716H492.55V203.658Z" stroke="#263238" stroke-width="0.75" stroke-miterlimit="10"/>
<path d="M492.55 293.91H400.804V366.967H492.55V293.91Z" stroke="#263238" stroke-width="0.75" stroke-miterlimit="10"/>
<path d="M458.264 120.01H434.292V136.975H458.264V120.01Z" fill="#263238"/>
<path d="M458.264 212.389H434.292V229.354H458.264V212.389Z" fill="#263238"/>
<path d="M458.264 304.756H434.292V321.721H458.264V304.756Z" fill="#263238"/>
<path d="M341.925 43.9629H123.805V206.714H341.925V43.9629Z" fill="#263238" stroke="#263238" stroke-linecap="round" stroke-linejoin="round"/>
<path d="M335.742 49.1699H130.013V201.493H335.742V49.1699Z" fill="white" stroke="#263238" stroke-linecap="round" stroke-linejoin="round"/>
<path d="M150.488 70.9765L148.791 90.2228L165.68 91.9079L167.365 69.9629L150.488 70.9765Z" fill="white" stroke="#263238" stroke-linecap="round" stroke-linejoin="round"/>
<path d="M203.159 104.059V118.249L219.365 119.592L220.036 105.756L203.159 104.059Z" fill="white" stroke="#263238" stroke-linecap="round" stroke-linejoin="round"/>
<path d="M198.471 80.6191V94.7973L214.677 96.153L215.348 82.3043L198.471 80.6191Z" fill="white" stroke="#263238" stroke-linecap="round" stroke-linejoin="round"/>
<path d="M179.706 134.074V148.252L195.911 149.608L196.596 135.759L179.706 134.074Z" fill="white" stroke="#263238" stroke-linecap="round" stroke-linejoin="round"/>
<path d="M172.763 68.9483L221.734 62.5371L222.063 70.304L175.132 76.7152L172.763 68.9483Z" fill="#ED4322" stroke="#263238" stroke-linecap="round" stroke-linejoin="round"/>
<path d="M228.247 171.174L277.129 178.079L275.38 185.656L228.449 179.296L228.247 171.174Z" fill="white" stroke="#263238" stroke-linecap="round" stroke-linejoin="round"/>
<path d="M169.393 98.3177V117.235H185.94L185.256 97.9883L169.393 98.3177Z" fill="#ED4322" stroke="#263238" stroke-linecap="round" stroke-linejoin="round"/>
<path d="M304.446 121.772V140.676H320.993L320.309 121.43L304.446 121.772Z" fill="#ED4322" stroke="#263238" stroke-linecap="round" stroke-linejoin="round"/>
<path d="M251.104 62.8668V87.5234L267.309 89.5379V62.1953L251.104 62.8668Z" fill="#ED4322" stroke="#263238" stroke-linecap="round" stroke-linejoin="round"/>
<path d="M297.693 88.1949L279.802 85.4961L277.775 104.058L294.652 106.77L297.693 88.1949Z" fill="white" stroke="#263238" stroke-linecap="round" stroke-linejoin="round"/>
<path d="M261.228 126.689L269.337 147.62L288.925 138.168L278.789 119.936L261.228 126.689Z" fill="#ED4322" stroke="#263238" stroke-linecap="round" stroke-linejoin="round"/>
<path d="M223.077 88.5376L227.803 133.441L249.076 131.756L245.022 85.8262L223.077 88.5376Z" fill="white" stroke="#263238" stroke-linecap="round" stroke-linejoin="round"/>
<path d="M157.913 131.07L154.53 156.398L170.064 157.754L173.777 132.084L157.913 131.07Z" fill="#ED4322" stroke="#263238" stroke-linecap="round" stroke-linejoin="round"/>
<path d="M221.24 131.82L204.021 134.19L208.405 159.176L226.638 156.135L221.24 131.82Z" fill="#ED4322" stroke="#263238" stroke-linecap="round" stroke-linejoin="round"/>
<path d="M314.063 111.369C313.581 108.355 312.417 105.49 310.661 102.994C308.904 100.497 306.601 98.4345 303.926 96.9629" stroke="#263238" stroke-linecap="round" stroke-linejoin="round"/>
<path d="M302.849 100.7L301.785 95.3535L310.325 95.8984" stroke="#263238" stroke-linecap="round" stroke-linejoin="round"/>
<path d="M264.445 68.6953L254.841 81.4924" stroke="#263238" stroke-linecap="round" stroke-linejoin="round"/>
<path d="M254.841 69.7598L264.445 79.3639" stroke="#263238" stroke-linecap="round" stroke-linejoin="round"/>
<path d="M152.427 97.4961C152.721 100.989 154.207 104.274 156.636 106.8C159.066 109.327 162.291 110.94 165.769 111.37" stroke="#263238" stroke-linecap="round" stroke-linejoin="round"/>
<path d="M164.16 107.1L168.43 112.434L160.435 114.562" stroke="#263238" stroke-linecap="round" stroke-linejoin="round"/>
<path d="M245.783 74.5625C245.783 74.5625 228.171 70.7614 220.176 82.0253" stroke="#263238" stroke-linecap="round" stroke-linejoin="round"/>
<path d="M218.047 78.8184L217.502 85.7617L225.51 82.5561" stroke="#263238" stroke-linecap="round" stroke-linejoin="round"/>
<path d="M79.3949 306.566C79.3949 306.566 62.2899 320.149 54.0542 334.302C45.8184 348.455 46.1225 358.059 46.1225 358.059C46.1225 358.059 70.1962 340.789 75.7205 329.132C79.018 322.098 80.2903 314.284 79.3949 306.566Z" fill="#ED4322"/>
<path d="M7.17388 287.625C7.17388 287.625 3.37277 312.015 12.4067 327.03C21.4407 342.044 46.0719 357.667 46.0719 357.667C46.0719 357.667 49.6322 346.707 36.6831 330.058C23.734 313.409 7.17388 287.625 7.17388 287.625Z" fill="#ED4322"/>
<path d="M47.3514 330.627C46.5199 317.151 42.4425 304.075 35.4666 292.515C23.8099 273.167 9.85984 253.566 6.57822 245.229C4.39696 239.449 2.63129 233.521 1.29468 227.49C1.29468 227.49 -3.55807 243.582 5.52658 264.982C14.6112 286.382 47.3514 330.627 47.3514 330.627Z" fill="#ED4322"/>
<path d="M46.4517 322.911C55.4055 311.199 63.1966 298.643 69.7144 285.42C79.2045 265.413 77.6968 244.646 77.6968 244.646C77.6968 244.646 59.8569 267.77 54.1806 285.812C50.5507 297.936 47.965 310.347 46.4517 322.911Z" fill="#ED4322"/>
<path d="M43.7531 283.431C43.7531 283.431 40.5095 254.694 32.7679 238.742C25.0263 222.79 9.16299 198.197 9.16299 198.197C9.16299 198.197 7.17375 225.679 19.6794 247.7C26.6703 260.275 34.7242 272.229 43.7531 283.431Z" fill="#ED4322"/>
<path d="M43.1069 266.858C43.1069 266.858 59.2236 242.848 63.6329 225.679C68.0422 208.511 71.8813 179.445 71.8813 179.445C71.8813 179.445 52.5464 199.236 47.8076 224.083C45.0274 238.182 43.4548 252.492 43.1069 266.858Z" fill="#ED4322"/>
<path d="M51.1144 163.213C51.1144 163.213 35.9099 174.388 38.368 197.816C40.826 221.243 43.056 229.149 43.056 229.149C40.674 213.121 51.1144 163.213 51.1144 163.213Z" fill="#ED4322"/>
<g opacity="0.5">
<path d="M79.3949 306.564C79.3949 306.564 62.2899 320.147 54.0542 334.3C45.8184 348.453 46.1225 358.057 46.1225 358.057C46.1225 358.057 70.1962 340.787 75.7205 329.13C79.018 322.096 80.2903 314.282 79.3949 306.564Z" fill="white"/>
<path d="M7.17388 287.623C7.17388 287.623 3.37277 312.013 12.4067 327.028C21.4407 342.042 46.0719 357.665 46.0719 357.665C46.0719 357.665 49.6322 346.705 36.6831 330.056C23.734 313.407 7.17388 287.623 7.17388 287.623Z" fill="white"/>
<path d="M47.3514 330.627C46.5199 317.151 42.4425 304.075 35.4666 292.515C23.8099 273.167 9.85984 253.566 6.57822 245.229C4.39696 239.449 2.63129 233.521 1.29468 227.49C1.29468 227.49 -3.55807 243.582 5.52658 264.982C14.6112 286.382 47.3514 330.627 47.3514 330.627Z" fill="white"/>
<path d="M46.4517 322.909C55.4055 311.198 63.1966 298.641 69.7144 285.418C79.2045 265.411 77.6968 244.645 77.6968 244.645C77.6968 244.645 59.8569 267.768 54.1806 285.811C50.5507 297.934 47.965 310.345 46.4517 322.909Z" fill="white"/>
<path d="M43.7531 283.429C43.7531 283.429 40.5095 254.692 32.7679 238.74C25.0263 222.788 9.16299 198.195 9.16299 198.195C9.16299 198.195 7.17375 225.677 19.6794 247.698C26.6703 260.273 34.7242 272.227 43.7531 283.429Z" fill="white"/>
<path d="M43.1069 266.856C43.1069 266.856 59.2236 242.846 63.6329 225.678C68.0422 208.509 71.8813 179.443 71.8813 179.443C71.8813 179.443 52.5464 199.234 47.8076 224.081C45.0274 238.18 43.4548 252.49 43.1069 266.856Z" fill="white"/>
<path d="M51.1144 163.213C51.1144 163.213 35.9099 174.388 38.368 197.816C40.826 221.243 43.056 229.149 43.056 229.149C40.674 213.121 51.1144 163.213 51.1144 163.213Z" fill="white"/>
</g>
<path d="M45.7677 365.508C45.7677 365.508 47.1614 361.796 47.1614 333.528C47.1614 305.261 43.4617 294.136 43.4617 266.376C43.4617 238.615 41.5991 212.615 41.5991 212.615" stroke="#ED4322" stroke-width="0.75" stroke-miterlimit="10"/>
<path d="M43.6517 280.629C43.6517 280.629 33.5155 258.925 29.3089 250.777C25.3684 243.175 20.7817 231.012 20.7817 231.012" stroke="#ED4322" stroke-width="0.75" stroke-miterlimit="10"/>
<path d="M21.5674 284.115C21.5674 284.115 44.0699 325.927 47.3516 330.628" stroke="#ED4322" stroke-width="0.75" stroke-miterlimit="10"/>
<path d="M47.1489 319.389L65.3562 275.98" stroke="#ED4322" stroke-width="0.75" stroke-miterlimit="10"/>
<path d="M25.4443 330.627C29.7016 337.596 47.1487 355.816 47.1487 355.816C47.1487 355.816 58.7674 343.411 66.1542 332.173" stroke="#ED4322" stroke-width="0.75" stroke-miterlimit="10"/>
<path d="M43.6519 262.804L54.8905 224.818" stroke="#ED4322" stroke-width="0.75" stroke-miterlimit="10"/>
<path d="M58.1717 360.605H32.8057V369.665H35.2004L38.2793 389.595H52.6855L55.777 369.665H58.1717V360.605Z" fill="#ED4322"/>
<path d="M58.1717 360.605H32.8057V369.665H35.2004L38.2793 389.595H52.6855L55.777 369.665H58.1717V360.605Z" fill="#ED4322"/>
<path d="M333.929 395.373C333.929 395.373 318.332 403.71 318.155 405.51C317.977 407.309 327.759 407.321 335.006 406.409C342.254 405.497 348.602 404.42 347.512 401.341C346.422 398.262 334.842 395.006 334.842 395.006L333.929 395.373Z" fill="#ED4322" stroke="#263238" stroke-linecap="round" stroke-linejoin="round"/>
<path d="M392.834 402.988C392.834 402.988 399.347 411.135 400.082 415.304C400.817 419.472 397.18 419.105 389.565 415.494C385.126 413.447 381.264 410.33 378.327 406.422L392.834 402.988Z" fill="#ED4322" stroke="#263238" stroke-linecap="round" stroke-linejoin="round"/>
<path d="M330.838 226.996C330.838 226.996 328.849 242.758 331.206 265.958C333.562 289.157 336.819 318.704 336.819 339.18C336.819 359.655 334.107 380.688 333.385 387.39C333.112 390.708 332.505 393.989 331.573 397.185C331.573 397.185 337.731 399.719 343.534 401.353C349.337 402.988 360.563 403.887 360.563 403.887C360.563 403.887 361.83 389.57 361.83 364.381C361.83 339.192 360.018 317.982 360.018 317.982C360.018 317.982 365.998 354.042 367.81 372.173C368.907 383.257 369.03 394.416 368.178 405.522C368.178 405.522 368.723 407.511 379.961 406.966C386.41 406.725 392.777 405.441 398.815 403.165C398.815 403.165 393.62 366.193 393.189 350.583C392.758 334.973 386.309 319.224 381.786 308.771C377.262 298.318 376.528 294.631 377.985 288.84C379.442 283.05 387.944 254.947 387.944 241.897C387.944 228.846 387.221 225.425 387.221 225.425C387.221 225.425 385.409 222.701 363.3 221.979C341.19 221.257 330.838 226.996 330.838 226.996Z" fill="#263238" stroke="#263238" stroke-linecap="round" stroke-linejoin="round"/>
<path d="M358.485 313.193C359.384 316.374 360.018 317.983 360.018 317.983" stroke="white" stroke-linecap="round" stroke-linejoin="round"/>
<path d="M352.593 236.551C352.593 236.551 351.871 271.344 354.038 289.842C354.779 296.367 355.917 302.841 357.446 309.228" stroke="white" stroke-linecap="round" stroke-linejoin="round"/>
<path d="M385.815 323.609C386.504 325.2 387.063 326.844 387.487 328.525" stroke="white" stroke-linecap="round" stroke-linejoin="round"/>
<path d="M384.814 240.744C384.078 249.036 382.787 257.269 380.949 265.388C376.565 284.672 372.612 296.519 373.056 300.865C373.398 304.248 380.303 312.37 384.624 320.948" stroke="white" stroke-linecap="round" stroke-linejoin="round"/>
<path d="M367.848 68.5416C367.848 68.5416 364.047 61.0661 372.612 54.6043C381.177 48.1424 395.242 55.2885 396.433 62.0924C397.624 68.8964 393.024 74.0026 394.899 77.5756C396.775 81.1487 405.276 82.5044 409.698 87.7119C414.12 92.9194 415.818 101.649 413.272 106.933C410.725 112.216 405.783 116.461 408.85 119.692C411.916 122.923 419.733 129.562 419.733 136.873C419.733 144.184 413.094 151.837 407.481 154.738C401.868 157.64 391.669 153.712 386.385 150.823C381.101 147.934 376.692 139.42 378.225 131.425C379.758 123.43 385.536 122.758 382.825 118.336C380.113 113.914 374.994 110.734 377.376 106.426C379.758 102.118 383.154 98.9378 382.647 95.2001C382.14 91.4623 376.87 88.2314 376.87 88.2314C376.87 88.2314 371.079 75.295 369.888 72.7482C368.697 70.2015 367.848 68.5416 367.848 68.5416Z" fill="#263238" stroke="#263238" stroke-linecap="round" stroke-linejoin="round"/>
<path d="M376.172 69.1121C376.172 69.1121 378.63 60.0654 386.866 61.2945C395.102 62.5235 388.133 71.9882 389.742 79.033C391.351 86.0777 407.848 85.6216 408.672 97.557C409.495 109.493 395.089 115.296 397.56 124.304C400.031 133.313 414.842 132.945 411.561 142.816C408.279 152.686 404.554 153.522 401.272 149.822" stroke="white" stroke-width="0.75" stroke-linecap="round" stroke-linejoin="round"/>
<path d="M386.018 92.1074C386.018 92.1074 397.953 96.6307 397.535 103.219C397.117 109.808 385.194 111.861 389.717 121.731" stroke="white" stroke-width="0.75" stroke-linecap="round" stroke-linejoin="round"/>
<path d="M360.385 118.793C360.385 118.793 334.652 124.406 333.017 126.395C331.383 128.384 306.916 163.722 306.916 163.722L275.241 145.781L271.439 153.041L304.56 182.069L332.295 166.307L335.551 180.979C335.551 180.979 330.483 211.793 329.761 218.863C329.039 225.934 328.849 229.38 328.849 229.38C338.167 231.929 347.844 232.909 357.484 232.281C367.714 231.705 377.769 229.373 387.209 225.389C387.209 225.389 380.138 204.179 377.237 196.754C374.335 189.329 371.257 180.624 371.257 180.624L380.506 159.959L391.909 186.693L408.051 180.89C408.051 180.89 395.685 130.209 394.418 128.245C393.151 126.281 374.297 119.718 374.297 119.718L360.385 118.793Z" fill="#ED4322" stroke="#263238" stroke-linecap="round" stroke-linejoin="round"/>
<path d="M336.096 145.983L333.119 136.037" stroke="#263238" stroke-linecap="round" stroke-linejoin="round"/>
<path d="M356.356 135.594C353.595 142.922 351.252 150.401 349.337 157.995C346.271 170.273 348.463 175.1 348.463 182.994C348.463 190.887 350.224 230.343 350.224 230.343" stroke="#263238" stroke-linecap="round" stroke-linejoin="round"/>
<path d="M332.295 166.28C332.295 166.28 328.672 155.586 329.571 152.684C330.471 149.783 335.742 146.526 336.096 145.982C336.451 145.437 338.821 139.646 338.821 139.646" stroke="#263238" stroke-linecap="round" stroke-linejoin="round"/>
<path d="M374.335 145.68L380.506 159.934L373.461 152.256" stroke="#263238" stroke-linecap="round" stroke-linejoin="round"/>
<path d="M361.652 115.345C361.652 115.345 356.394 116.257 355.127 118.246C353.86 120.236 347.335 134.553 347.335 134.553L359.473 129.308L367.075 139.634C367.075 139.634 377.047 121.325 377.212 119.881C377.376 118.436 371.054 114.445 370.509 114.445C369.964 114.445 361.652 115.345 361.652 115.345Z" fill="white" stroke="#263238" stroke-linecap="round" stroke-linejoin="round"/>
<path d="M358.396 114.256C358.689 117.878 358.689 121.518 358.396 125.14C357.851 128.941 356.039 134.377 356.939 134.199C357.838 134.022 368.9 121.694 370.357 119.16C371.814 116.625 371.979 109.91 371.979 109.91C371.979 109.91 363.109 115.168 358.396 114.256Z" fill="white" stroke="#263238" stroke-linecap="round" stroke-linejoin="round"/>
<path d="M380.265 92.1843C380.265 92.1843 381.456 76.5364 376.692 71.9117C371.928 67.287 360.36 65.9567 353.556 72.0764C346.752 78.1962 349.476 98.2787 350.503 103.892C351.529 109.505 356.965 116.638 361.222 116.473C365.479 116.309 371.079 111.025 372.625 109.327C374.171 107.629 375.159 102.865 375.159 102.865C375.159 102.865 380.101 100.99 380.95 98.1013C381.379 96.1075 381.139 94.0275 380.265 92.1843Z" fill="white" stroke="#263238" stroke-linecap="round" stroke-linejoin="round"/>
<path d="M357.332 89.2578C357.464 90.8383 357.134 92.4231 356.382 93.8191C355.178 95.4916 353.734 95.7324 353.974 96.6953C354.215 97.6583 356.622 98.4438 356.622 98.4438" stroke="#263238" stroke-linecap="round" stroke-linejoin="round"/>
<path d="M357.585 104.691C357.585 104.691 358.422 107.365 360.259 107.365C362.096 107.365 361.095 104.02 361.095 104.02C359.978 104.464 358.787 104.691 357.585 104.691Z" fill="#263238"/>
<path d="M356.052 103.918C356.052 103.918 359.651 105.59 362.045 103.195" stroke="#263238" stroke-linecap="round" stroke-linejoin="round"/>
<path d="M353.163 92.7429C353.562 92.7429 353.885 91.9374 353.885 90.9437C353.885 89.9501 353.562 89.1445 353.163 89.1445C352.764 89.1445 352.441 89.9501 352.441 90.9437C352.441 91.9374 352.764 92.7429 353.163 92.7429Z" fill="#263238"/>
<path d="M362.526 91.6644C362.526 92.6654 362.21 93.4636 361.817 93.4636C361.424 93.4636 361.095 92.6654 361.095 91.6644C361.095 90.6635 361.411 89.8652 361.817 89.8652C362.222 89.8652 362.526 90.6761 362.526 91.6644Z" fill="#263238"/>
<path d="M350.541 87.345C350.678 86.9837 350.886 86.6532 351.152 86.3726C351.418 86.092 351.736 85.8668 352.09 85.7101C352.443 85.5535 352.824 85.4683 353.211 85.4597C353.597 85.4511 353.982 85.5191 354.342 85.6599" stroke="#263238" stroke-linecap="round" stroke-linejoin="round"/>
<path d="M359.41 85.4176C359.991 85.1863 360.616 85.0856 361.241 85.1228C361.866 85.1599 362.475 85.3339 363.025 85.6325C363.575 85.9311 364.053 86.347 364.424 86.8506C364.796 87.3543 365.052 87.9335 365.175 88.5472" stroke="#263238" stroke-linecap="round" stroke-linejoin="round"/>
<path d="M376.692 71.9496C371.928 67.3503 360.36 65.9946 353.556 72.1143C352.245 73.4015 351.266 74.9888 350.706 76.739C353.273 75.3653 356.1 74.5452 359.005 74.3317C364.96 73.8122 370.915 77.9047 372.613 81.9339C374.31 85.9631 374.615 95.2504 374.615 95.2504C374.615 95.2504 376.832 91.6774 378.188 91.3353C378.574 91.2405 378.98 91.2718 379.347 91.4246C379.714 91.5773 380.023 91.8435 380.227 92.1842C380.227 92.1842 381.457 76.5363 376.692 71.9496Z" fill="#263238" stroke="#263238" stroke-linecap="round" stroke-linejoin="round"/>
<path d="M396.306 177.241L355.533 195.867L356.977 201.125C356.977 201.125 410.725 189.722 410.725 188.214C410.725 186.706 406.29 174.885 406.29 174.885" fill="#ED4322"/>
<path d="M396.306 177.241L355.533 195.867L356.977 201.125C356.977 201.125 410.725 189.722 410.725 188.214C410.725 186.706 406.29 174.885 406.29 174.885" stroke="#263238" stroke-linecap="round" stroke-linejoin="round"/>
<path d="M344.801 171.932C345.724 173.336 346.377 174.9 346.727 176.544C347.677 179.99 348.83 190.544 349.261 193.231C349.692 195.917 354.24 208.955 354.24 208.955L350.984 209.727L339.657 176.151C339.657 176.151 341.165 170.779 344.801 171.932Z" fill="white" stroke="#263238" stroke-linecap="round" stroke-linejoin="round"/>
<path d="M318.371 181.181L328.887 217.254L352.441 211.451L343.205 176.113L318.371 181.181Z" fill="white" stroke="#263238" stroke-linecap="round" stroke-linejoin="round"/>
<path d="M318.37 181.181C318.37 181.181 316.216 182.296 316.216 180.18C316.216 178.064 317.179 177.303 319.485 177.113C321.791 176.923 337.325 173.857 340.962 172.311C344.598 170.766 344.763 171.931 344.763 171.931C344.109 172.389 343.608 173.032 343.323 173.777C343.039 174.522 342.984 175.336 343.166 176.112L318.37 181.181Z" fill="white" stroke="#263238" stroke-linecap="round" stroke-linejoin="round"/>
<path d="M355.533 195.867C355.533 195.867 347.005 194.055 346.461 194.055C345.916 194.055 335.412 201.492 335.412 201.492L336.312 204.571C336.968 204.721 337.641 204.78 338.314 204.748C339.758 204.748 345.016 204.381 345.016 204.381L337.946 206.142L338.491 207.409C338.491 207.409 348.273 205.597 349.552 205.407C350.832 205.217 356.977 201.061 356.977 201.061L355.533 195.867Z" fill="white" stroke="#263238" stroke-linecap="round" stroke-linejoin="round"/>
<path d="M273.023 138.913L265.231 136.151L256.526 130.031L255.804 131.666L262.773 139.382L259.795 146.161L265.776 150.697L271.211 153.585L275.203 145.793L273.023 138.913Z" fill="white" stroke="#263238" stroke-linecap="round" stroke-linejoin="round"/>
<path d="M274.835 145.071C274.835 145.071 273.935 138.736 272.668 137.279C271.14 135.823 269.501 134.488 267.765 133.288L265.776 130.031C265.776 130.031 264.686 130.209 264.686 131.121C265.117 133.044 265.723 134.922 266.498 136.734C266.97 137.986 267.646 139.15 268.5 140.18C268.5 140.18 267.233 143.082 267.955 144.894C268.57 146.195 269.43 147.365 270.489 148.34" fill="white"/>
<path d="M274.835 145.071C274.835 145.071 273.935 138.736 272.668 137.279C271.14 135.823 269.501 134.488 267.765 133.288L265.776 130.031C265.776 130.031 264.686 130.209 264.686 131.121C265.117 133.044 265.723 134.922 266.498 136.734C266.97 137.986 267.646 139.15 268.5 140.18C268.5 140.18 267.233 143.082 267.955 144.894C268.57 146.195 269.43 147.365 270.489 148.34" stroke="#263238" stroke-linecap="round" stroke-linejoin="round"/>
<path d="M260.581 136.012C260.581 136.012 256.957 145.793 257.502 146.528C258.047 147.263 262.938 148.695 263.483 148.15C264.027 147.605 266.929 140.548 266.929 140.548L260.581 136.012Z" fill="white" stroke="#263238" stroke-linecap="round" stroke-linejoin="round"/>
<path d="M385.296 232.066C385.296 232.066 385.296 233.46 385.156 235.982" stroke="white" stroke-linecap="round" stroke-linejoin="round"/>
<path d="M138.73 125.432C138.73 125.432 149.741 157.285 152.3 165.343C154.859 173.402 157.368 187.567 156.811 189.734C156.253 191.9 145.8 181.27 141.48 182.854C137.159 184.437 137.552 187.377 137.552 187.377L132.61 174.783L138.73 125.432Z" fill="#ED4322" stroke="#263238" stroke-linecap="round" stroke-linejoin="round"/>
<path d="M136.513 176.214C136.513 176.214 142.202 169.878 148.664 171.259" stroke="#263238" stroke-linecap="round" stroke-linejoin="round"/>
<path d="M136.196 174.023C136.196 174.023 139.427 165.711 146.814 165.711" stroke="#263238" stroke-linecap="round" stroke-linejoin="round"/>
<path d="M142.86 193.663C142.86 193.663 138.527 191.496 137.552 189.342C136.576 187.188 136.753 180.093 139.313 177.939C141.872 175.785 149.74 176.165 151.704 176.95C153.668 177.736 156.418 182.652 157.609 185.604C158.8 188.556 158.787 192.484 157.203 194.055C156.586 194.767 155.794 195.304 154.905 195.615C154.016 195.926 153.061 196 152.135 195.829C150.349 195.436 142.86 193.663 142.86 193.663Z" fill="#ED4322" stroke="#263238" stroke-linecap="round" stroke-linejoin="round"/>
<path d="M90.3543 114.815C90.3543 114.815 65.0136 128.752 63.6072 132.553C62.2007 136.355 80.0786 210.223 80.0786 210.223C80.3873 211.019 80.9254 211.705 81.6247 212.194C82.324 212.684 83.153 212.955 84.0064 212.972C86.9586 212.972 128.847 212.187 130.215 211.794C131.584 211.401 132.192 209.26 132.192 208.259C132.192 207.258 139.655 127.435 138.679 125.471C137.703 123.507 107.269 111.115 107.269 111.115L96.4487 111.508L90.3543 114.815Z" fill="#ED4322" stroke="#263238" stroke-linecap="round" stroke-linejoin="round"/>
<path d="M94.4849 104.196C92.176 106.156 90.055 108.328 88.1497 110.683C85.6156 114.028 86.9714 119.134 88.5425 122.872C90.1136 126.61 95.0297 137.037 95.0297 137.037C95.0297 137.037 106.243 126.812 106.838 126.42C107.434 126.027 124.134 129.562 124.134 129.562C124.134 129.562 122.17 119.134 116.468 111.279C110.766 103.423 104.469 101.636 101.922 101.446C99.3756 101.256 94.4849 104.196 94.4849 104.196Z" fill="#ED4322" stroke="#263238" stroke-linecap="round" stroke-linejoin="round"/>
<path d="M90.1519 96.3288C90.1519 96.3288 92.686 105.375 93.3068 107.732C93.9277 110.089 97.6274 116.779 100.187 120.124C102.746 123.469 108.448 128.385 108.841 126.611C109.233 124.837 112.768 98.1026 110.995 93.9721C109.221 89.8415 94.0924 77.8427 90.3546 80.0347C86.6169 82.2266 90.1519 96.3288 90.1519 96.3288Z" fill="white" stroke="#263238" stroke-linecap="round" stroke-linejoin="round"/>
<path d="M125.008 95.7454C125.008 95.7454 122.854 100.066 114.986 96.9238C107.117 93.7815 103.773 89.2582 102.797 86.306L101.124 81.2379C102.708 79.3626 104.926 77.3607 104.761 75.7009C104.635 74.6301 104.229 73.6115 103.582 72.7487L114.593 67.6806C114.593 67.6806 117.735 66.3122 116.367 62.3717C114.998 58.4312 106.535 53.5024 95.5241 57.3036C84.5136 61.1047 79.3947 70.1766 81.7007 78.0449C84.0068 85.9132 91.1402 98.3175 91.1402 98.3175C91.1402 98.3175 93.8896 99.3058 95.2707 97.9247C96.6518 96.5436 94.8779 91.2475 94.8779 91.2475L95.4988 90.7406C96.7658 93.4521 99.8574 99.7239 100.782 101.865C101.961 104.615 102.353 106.579 107.27 107.174C112.186 107.77 124.767 110.912 125.946 106.579C127.124 102.245 125.008 95.7454 125.008 95.7454Z" fill="#263238" stroke="#263238" stroke-linecap="round" stroke-linejoin="round"/>
<path d="M98.4003 71.6211C95.1828 72.0009 92.1229 73.2249 89.5311 75.1688C84.7543 78.5264 84.2222 81.504 84.2222 81.504L93.7883 76.7272C93.7883 76.7272 87.0477 82.5683 86.1861 84.1647C85.3245 85.7612 93.2815 80.7944 93.2815 80.7944L89.0242 86.116L94.1684 84.1647" stroke="white" stroke-width="0.5" stroke-linecap="round" stroke-linejoin="round"/>
<path d="M97.0444 71.5584C97.0444 71.5584 101.758 74.3079 100.782 76.8673C99.8066 79.4267 97.2345 82.3662 97.4372 83.2024C97.64 84.0387 103.139 96.9751 105.293 99.1291C107.447 101.283 122.208 103.07 124.374 100.903C126.541 98.7363 122.803 87.0416 120.041 79.4393C117.279 71.8371 115.328 65.502 115.328 65.502L97.0444 71.5584Z" fill="white" stroke="#263238" stroke-linecap="round" stroke-linejoin="round"/>
<path d="M118.027 75.3711L115.885 77.7785L120.168 87.1292L116.151 89.2705" stroke="#263238" stroke-linecap="round" stroke-linejoin="round"/>
<path d="M111.463 81.7444C111.793 82.568 111.679 83.3789 111.222 83.5563C110.766 83.7336 110.145 83.2141 109.816 82.4032C109.487 81.5923 109.601 80.7688 110.057 80.5914C110.513 80.414 111.146 80.9335 111.463 81.7444Z" fill="#263238"/>
<path d="M118.546 78.7413C118.876 79.5522 118.774 80.3631 118.318 80.5405C117.862 80.7179 117.228 80.2111 116.899 79.3875C116.57 78.564 116.684 77.7657 117.14 77.5757C117.596 77.3856 118.229 77.9178 118.546 78.7413Z" fill="#263238"/>
<path d="M111.704 92.5273L116.671 93.0595" stroke="#263238" stroke-linecap="round" stroke-linejoin="round"/>
<path d="M111.527 78.7031H105.331" stroke="#263238" stroke-linecap="round" stroke-linejoin="round"/>
<path d="M96.7781 93.6173C96.1953 92.8317 93.6359 87.5228 91.0765 88.5491C88.517 89.5754 89.708 93.858 91.862 96.6075C94.016 99.357 98.3619 96.7975 98.3619 96.7975" fill="white"/>
<path d="M96.7781 93.6173C96.1953 92.8317 93.6359 87.5228 91.0765 88.5491C88.517 89.5754 89.708 93.858 91.862 96.6075C94.016 99.357 98.3619 96.7975 98.3619 96.7975" stroke="#263238" stroke-linecap="round" stroke-linejoin="round"/>
<path d="M69.119 130.74C69.119 130.74 64.0508 133.274 62.429 136.252C60.8072 139.229 60.6678 145.489 61.2507 148.048C61.8335 150.607 87.9978 183.043 87.9978 183.043L99.0084 172.033L86.0339 139.787" fill="#ED4322"/>
<path d="M69.119 130.74C69.119 130.74 64.0508 133.274 62.429 136.252C60.8072 139.229 60.6678 145.489 61.2507 148.048C61.8335 150.607 87.9978 183.043 87.9978 183.043L99.0084 172.033L86.0339 139.787" stroke="#263238" stroke-linecap="round" stroke-linejoin="round"/>
<path d="M100.187 162.404C100.187 162.404 92.3185 163.975 90.3546 166.535C88.3907 169.094 83.4746 179.699 83.4746 184.615C83.4746 189.532 94.8779 193.269 99.4012 193.269C103.925 193.269 110.209 190.913 110.995 185.794C111.78 180.675 108.461 171.856 107.46 170.463C106.459 169.069 100.187 162.404 100.187 162.404Z" fill="#ED4322" stroke="#263238" stroke-linecap="round" stroke-linejoin="round"/>
<path d="M109.804 109.113L111.577 96.1387L120.029 96.3287C120.029 96.3287 121.017 97.1143 120.231 97.7098C119.446 98.3053 114.922 98.8882 114.922 98.8882L114.72 101.245L120.814 100.459C121.503 101.449 122.097 102.501 122.588 103.602C122.791 104.387 121.22 109.506 121.22 109.506L119.636 109.899L119.053 107.149L116.303 108.328C116.303 108.328 115.708 115.018 115.112 115.6C113.984 116.458 112.803 117.245 111.577 117.957C111.577 117.957 109.411 173.605 109.411 176.165C109.411 183.045 105.28 185.604 100.542 186.187C95.8028 186.77 93.066 182.462 92.4832 178.914C91.9003 175.366 109.804 109.113 109.804 109.113Z" fill="white" stroke="#263238" stroke-linecap="round" stroke-linejoin="round"/>
<path d="M58.1085 397.375C58.1085 397.375 41.0035 411.528 39.2296 414.29C37.4558 417.052 41.9791 417.039 44.7412 416.254C47.5034 415.468 52.3434 414.683 55.7518 412.313C57.9048 410.776 59.9418 409.082 61.8462 407.245L62.0363 409.995C62.0363 409.995 65.1912 409.006 65.3813 408.424C65.5713 407.841 66.4075 401.544 66.4075 401.544L58.1085 397.375Z" fill="#ED4322" stroke="#263238" stroke-linecap="round" stroke-linejoin="round"/>
<path d="M153.871 397.375C153.871 397.375 170.976 411.528 172.737 414.29C174.498 417.052 169.988 417.039 167.238 416.254C164.489 415.468 159.573 414.683 156.228 412.313C154.072 410.78 152.034 409.085 150.133 407.245L149.93 409.995C149.93 409.995 146.788 409.006 146.585 408.424C146.383 407.841 145.572 401.544 145.572 401.544L153.871 397.375Z" fill="#ED4322" stroke="#263238" stroke-linecap="round" stroke-linejoin="round"/>
<path d="M152.376 352.548C152.186 344.084 146.117 331.109 146.117 330.514C146.117 329.918 137.387 252.452 137.387 252.452L131.875 210.184L105.597 210.551L79.3058 210.184L73.8069 252.452C73.8069 252.452 65.077 329.931 65.077 330.514C65.077 331.097 58.9953 344.084 58.7418 352.548C58.4884 361.012 56.5879 398.554 56.5879 398.554L66.4581 401.506C66.4581 401.506 84.1079 340.942 86.9461 329.285C89.7842 317.628 95.2958 289.373 97.3864 278.756C99.477 268.138 105.166 251.033 105.166 251.033L105.648 250.919L106.116 251.033C106.116 251.033 111.818 268.138 113.896 278.756C115.974 289.373 121.498 317.692 124.336 329.285C127.174 340.878 144.837 401.506 144.837 401.506L154.707 398.554C154.707 398.554 152.566 360.999 152.376 352.548Z" fill="#263238" stroke="#263238" stroke-linecap="round" stroke-linejoin="round"/>
<path d="M117.279 235.398L108.511 246.941" stroke="white" stroke-linecap="round" stroke-linejoin="round"/>
<path d="M84.9697 221.094L98.3623 232.636" stroke="white" stroke-linecap="round" stroke-linejoin="round"/>
<path d="M82.6636 224.324L92.3564 230.786" stroke="white" stroke-linecap="round" stroke-linejoin="round"/>
<path d="M109.892 213.707L104.812 226.175L109.436 229.862L107.13 237.249" stroke="white" stroke-linecap="round" stroke-linejoin="round"/>
<path d="M151.894 199.363C151.894 199.363 155.835 193.028 154.847 188.948C153.858 184.869 147.776 181.473 143.05 183.044C138.324 184.615 138.134 190.912 138.134 194.65C138.134 198.388 136.36 214.707 136.36 214.707L129.48 226.503L134.789 232.598C134.789 232.598 140.301 222.17 144.431 215.29C147.336 210.187 149.831 204.861 151.894 199.363Z" fill="white" stroke="#263238" stroke-linecap="round" stroke-linejoin="round"/>
<path d="M135.575 216.861L127.542 220.992L122.043 228.86L123.019 229.848C124.339 228.964 125.719 228.172 127.149 227.479C128.923 226.694 132.065 225.515 132.065 225.515" fill="white"/>
<path d="M135.575 216.861L127.542 220.992L122.043 228.86L123.019 229.848C124.339 228.964 125.719 228.172 127.149 227.479C128.923 226.694 132.065 225.515 132.065 225.515" stroke="#263238" stroke-linecap="round" stroke-linejoin="round"/>
</svg>
