<svg width="500" height="396" viewBox="0 0 500 396" fill="none" xmlns="http://www.w3.org/2000/svg">
<g clip-path="url(#clip0_1204_609)">
<path opacity="0.12" d="M225.365 70.3857C208.034 84.9524 193.95 103.87 173.897 114.38C162.673 120.255 150.187 123.156 137.985 126.519C96.807 137.87 53.9054 158.27 35.9439 197.03C31.9081 205.754 29.3016 215.129 24.6247 223.516C20.8201 230.305 15.7333 236.296 11.6449 242.98C1.42068 259.681 -2.242 279.583 1.36616 298.83C6.04309 323.139 22.302 344.18 42.4916 358.495C56.9469 368.732 73.3528 375.886 90.6902 379.515C130.123 387.754 170.755 377.213 210.987 375.311C285.608 371.695 360.585 397.718 434.229 385.148C454.734 381.648 476.195 374.123 488.071 357.044C496.059 345.546 498.644 331.127 499.317 317.107C500.996 279.651 490.514 242.658 469.437 211.65C461.733 200.383 452.453 189.579 449.563 176.189C447.871 168.37 448.512 160.235 447.608 152.29C446.521 143.446 443.522 134.945 438.817 127.379C434.113 119.812 427.816 113.361 420.366 108.474C403.361 97.4803 381.28 95.2627 366.009 81.9781C344.589 63.3335 337.895 44.3631 306.585 42.1034C277.231 39.9804 247.646 51.6675 225.365 70.3857Z" fill="#FD8068"/>
<path d="M324.568 127.401C324.568 127.401 333.649 146.791 337.99 151.353C342.33 155.914 406.441 184.795 406.441 184.795C406.441 184.795 408.932 187.843 413.651 186.004C418.37 184.165 423.425 172.015 423.425 172.015C423.425 172.015 419.873 166.886 415.542 166.666C411.212 166.445 413.651 163.071 413.651 163.071L406.01 166.666C406.01 166.666 401.386 169.041 389.257 160.086C377.129 151.132 352.567 139.603 352.567 139.603L347.312 124.668L324.568 127.401Z" fill="url(#paint0_linear_1204_609)"/>
<path d="M324.568 127.401C324.568 127.401 333.649 146.791 337.99 151.353C342.33 155.914 406.441 184.795 406.441 184.795C406.441 184.795 408.932 187.843 413.651 186.004C418.37 184.165 423.425 172.015 423.425 172.015C423.425 172.015 419.873 166.886 415.542 166.666C411.212 166.445 413.651 163.071 413.651 163.071L406.01 166.666C406.01 166.666 401.386 169.041 389.257 160.086C377.129 151.132 352.567 139.603 352.567 139.603L347.312 124.668L324.568 127.401Z" fill="url(#paint1_linear_1204_609)"/>
<path d="M344.81 81.5156L348.835 118.794V126.193H342.708L333.344 109.567L344.81 81.5156Z" fill="#FD8068"/>
<path d="M344.81 81.5156L348.835 118.794V126.193H342.708L333.344 109.567L344.81 81.5156Z" fill="url(#paint2_linear_1204_609)"/>
<path d="M155.926 366.46C146.603 366.145 137.271 365.84 127.959 366.345C116.335 366.986 104.837 368.888 93.3389 370.79L60.4849 376.234C67.516 384.169 78.646 386.744 89.0299 388.93C97.8267 390.791 106.729 392.63 115.694 393.261C126.204 394.007 136.861 393.05 147.423 392.42C188.013 390.013 228.718 392.346 269.338 393.86C332.748 396.235 396.186 396.624 459.652 395.026C458.15 390.486 453.473 387.669 448.775 386.744C444.077 385.819 439.242 386.534 434.471 386.87C416.73 388.132 400.713 383.896 384.454 377.306C370.938 371.831 357.349 373.166 342.855 372.682L224.093 368.73L155.926 366.46Z" fill="url(#paint3_linear_1204_609)"/>
<path d="M306.428 339.25C319.801 339.25 330.643 328.291 330.643 314.773C330.643 301.254 319.801 290.295 306.428 290.295C293.054 290.295 282.213 301.254 282.213 314.773C282.213 328.291 293.054 339.25 306.428 339.25Z" fill="#FD8068"/>
<path d="M306.428 339.25C319.801 339.25 330.643 328.291 330.643 314.773C330.643 301.254 319.801 290.295 306.428 290.295C293.054 290.295 282.213 301.254 282.213 314.773C282.213 328.291 293.054 339.25 306.428 339.25Z" fill="url(#paint4_linear_1204_609)"/>
<path d="M127.086 386.019C110.898 386.019 95.0725 381.219 81.6121 372.225C68.1517 363.231 57.6606 350.447 51.4655 335.491C45.2703 320.535 43.6494 304.077 46.8077 288.199C49.9659 272.322 57.7615 257.737 69.2086 246.29C80.6558 234.843 95.2403 227.047 111.118 223.889C126.996 220.731 143.453 222.352 158.41 228.547C173.366 234.742 186.149 245.233 195.143 258.694C204.137 272.154 208.938 287.979 208.938 304.168C208.904 325.866 200.27 346.666 184.927 362.009C169.584 377.352 148.784 385.986 127.086 386.019ZM127.086 232.017C112.814 232.017 98.8617 236.25 86.9946 244.179C75.1275 252.109 65.8784 263.38 60.417 276.566C54.9556 289.752 53.5272 304.262 56.3124 318.26C59.0976 332.258 65.9713 345.116 76.0643 355.208C86.1573 365.299 99.0162 372.171 113.015 374.954C127.013 377.738 141.523 376.307 154.709 370.844C167.894 365.38 179.163 356.13 187.091 344.261C195.019 332.393 199.25 318.44 199.248 304.168C199.225 285.037 191.615 266.697 178.087 253.17C164.558 239.644 146.217 232.037 127.086 232.017ZM419.168 392.746C403.182 392.744 387.555 388.001 374.265 379.117C360.974 370.233 350.617 357.607 344.502 342.836C338.388 328.065 336.791 311.813 339.915 296.135C343.038 280.457 350.74 266.057 362.048 254.756C373.356 243.456 387.76 235.763 403.441 232.65C419.121 229.537 435.372 231.144 450.139 237.268C464.906 243.392 477.525 253.758 486.4 267.054C495.276 280.35 500.008 295.98 500 311.966C499.961 333.387 491.431 353.919 476.279 369.061C461.127 384.204 440.589 392.721 419.168 392.746ZM419.168 241.581C405.257 241.581 391.659 245.706 380.092 253.433C368.525 261.161 359.509 272.144 354.184 284.995C348.858 297.846 347.463 311.988 350.174 325.632C352.884 339.276 359.58 351.81 369.413 361.649C379.247 371.489 391.777 378.192 405.419 380.911C419.062 383.629 433.204 382.242 446.058 376.925C458.912 371.607 469.901 362.598 477.636 351.035C485.37 339.473 489.503 325.877 489.511 311.966C489.511 293.303 482.102 275.404 468.913 262.2C455.723 248.997 437.831 241.569 419.168 241.55V241.581Z" fill="black"/>
<path d="M421.617 328.52C421.139 328.905 420.558 329.143 419.946 329.203C383.971 316.318 376.855 224.692 376.855 224.692L385.694 222.811C385.694 223.042 385.694 223.283 385.757 223.515C391.748 299.344 421.943 327.405 421.943 327.405C421.982 327.604 421.973 327.808 421.916 328.002C421.859 328.196 421.757 328.374 421.617 328.52Z" fill="#FD8068"/>
<path d="M421.617 328.519C387.134 313.406 380.25 224.734 380.25 224.734L385.778 223.557C391.769 299.386 421.964 327.447 421.964 327.447C421.993 327.641 421.977 327.838 421.917 328.024C421.857 328.21 421.754 328.38 421.617 328.519Z" fill="url(#paint5_linear_1204_609)"/>
<path d="M214.256 177.619L247.982 242.78L268.845 241.162L270.253 175.506C270.253 175.506 219.301 134.076 214.256 177.619Z" fill="#ED4322"/>
<path d="M268.466 247.603L267.268 241.297L247.982 242.789L250.988 251.397L249.643 255.601C247.069 263.665 246.545 272.244 248.119 280.562L276.243 337.316L286.333 336.654L268.466 247.603Z" fill="url(#paint6_linear_1204_609)"/>
<path d="M233.615 207.477H242.538L223.725 313.574C223.549 314.591 223.019 315.513 222.228 316.177C221.438 316.841 220.438 317.203 219.406 317.2H219.332C218.69 317.199 218.057 317.058 217.475 316.786C216.894 316.514 216.379 316.119 215.967 315.627C215.554 315.136 215.254 314.56 215.088 313.94C214.921 313.321 214.892 312.672 215.002 312.04L233.615 207.477Z" fill="#FD8068"/>
<path d="M233.615 227.163L374.48 192.186V202.748L233.615 238.408V227.163ZM224.135 296.223L374.48 204.924V217.935L224.135 308.121V296.223Z" fill="#FD8068"/>
<path d="M224.135 296.222L374.48 204.922V217.933L224.135 308.119V296.222Z" fill="url(#paint7_linear_1204_609)"/>
<path d="M390.875 191.534V217.557C390.876 218.987 390.375 220.373 389.459 221.472C388.542 222.57 387.27 223.312 385.862 223.568L381.658 224.336C380.777 224.498 379.871 224.464 379.004 224.236C378.138 224.009 377.332 223.593 376.644 223.02C375.956 222.446 375.403 221.728 375.023 220.916C374.644 220.105 374.447 219.22 374.448 218.324V192.291C374.449 190.861 374.951 189.476 375.867 188.378C376.783 187.28 378.055 186.537 379.461 186.279L380.229 186.143L383.644 185.522C384.527 185.357 385.435 185.388 386.304 185.614C387.174 185.84 387.982 186.255 388.673 186.829C389.363 187.403 389.919 188.122 390.299 188.936C390.68 189.749 390.877 190.636 390.875 191.534Z" fill="#FD8068"/>
<path d="M390.875 189.851V218.722C390.875 219.826 390.488 220.894 389.781 221.741C389.075 222.588 388.093 223.16 387.007 223.357L380.029 224.639C379.349 224.762 378.651 224.735 377.984 224.559C377.317 224.383 376.696 224.062 376.166 223.621C375.636 223.179 375.209 222.626 374.916 222.001C374.623 221.376 374.47 220.695 374.469 220.004V191.102C374.468 189.999 374.855 188.93 375.562 188.083C376.269 187.236 377.251 186.664 378.336 186.467L380.249 186.11L385.315 185.185C385.997 185.06 386.698 185.086 387.369 185.264C388.039 185.441 388.662 185.764 389.193 186.209C389.725 186.655 390.151 187.213 390.441 187.842C390.732 188.472 390.88 189.158 390.875 189.851Z" fill="url(#paint8_linear_1204_609)"/>
<path d="M396.656 221.466L390.876 222.517V184.187L380.25 186.131V186.026L396.656 183.01" fill="url(#paint9_linear_1204_609)"/>
<path d="M390.876 184.188V222.517L380.25 224.462V186.132L390.876 184.188Z" fill="url(#paint10_linear_1204_609)"/>
<path d="M233.615 227.172L110.186 303.894C110.186 303.894 104.815 317.61 110.186 317.19C115.556 316.769 223.693 313.564 223.693 313.564L224.093 301.74L117.175 311.567C117.175 311.567 113.717 309.465 118.615 305.534C123.512 301.603 233.615 238.397 233.615 238.397V227.172Z" fill="#FD8068"/>
<path d="M242.538 207.477L239.3 225.785L237.199 237.525L223.714 313.595C223.538 314.612 223.008 315.534 222.217 316.198C221.427 316.862 220.427 317.224 219.395 317.221H219.321C218.334 317.22 217.377 316.886 216.603 316.274C215.829 315.662 215.283 314.808 215.054 313.848C214.905 313.264 214.884 312.654 214.991 312.061L216.704 302.455L227.466 241.96L229.663 229.642L233.604 207.498L242.538 207.477Z" fill="url(#paint11_linear_1204_609)"/>
<path d="M374.469 192.195V202.747L237.209 237.493L239.3 225.764L374.469 192.195Z" fill="url(#paint12_linear_1204_609)"/>
<path d="M374.48 217.934L224.135 308.119L374.48 217.934Z" fill="url(#paint13_linear_1204_609)"/>
<path d="M117.207 311.579L216.715 302.435L215.002 312.041C214.896 312.661 215.548 307.564 215.695 308.131C189.925 308.909 115.63 312.335 110.743 314.774C105.856 317.212 113.896 304.169 113.896 304.169L228.749 234.877L227.487 241.94C204.26 255.298 122.84 302.162 118.657 305.546C113.749 309.498 117.207 311.579 117.207 311.579Z" fill="url(#paint14_linear_1204_609)"/>
<path d="M398.926 182.126L393.472 188.873C393.472 188.873 393.587 194.381 397.36 194.065L419.116 165.363C419.116 165.363 431.518 148.095 420.03 140.139C417.444 138.362 414.472 137.227 411.359 136.828C395.983 134.779 382.331 146.897 381.7 162.388L380.649 187.244L387.67 186.834L389.068 159.067C389.446 147.506 409.142 135.126 417.256 147.18C421.869 153.97 407.502 172.184 398.926 182.126Z" fill="#FD8068"/>
<path d="M332.576 61.2308C337.758 56.5749 342.54 50.8785 343.696 44.005C344.179 41.0622 344.021 37.9933 344.4 35.04C345.104 29.6064 346.081 23.6367 350.296 20.1264C352.385 18.555 354.804 17.4771 357.369 16.9734C359.644 16.3712 361.997 16.116 364.348 16.2167C371.852 16.6896 378.505 22.7644 380.113 30.1003C380.581 32.7109 380.771 35.3637 380.68 38.0143V45.5499C380.574 47.2155 380.792 48.8859 381.321 50.4686C381.889 51.8559 382.961 53.2327 382.604 54.6726C382.152 55.7609 381.354 56.6697 380.333 57.258C379.067 58.2443 377.939 59.3968 376.981 60.6843C375.478 62.7127 374.374 65.0879 372.398 66.6539C369.161 69.2288 364.547 68.9135 360.459 68.304C358.7 67.9391 356.893 67.861 355.109 68.0728C351.368 68.7559 348.604 72.0245 344.988 73.2016C344.505 73.3837 343.991 73.4694 343.475 73.4538C342.046 73.3592 340.995 72.1506 340.101 71.0366C337.726 68.0412 334.951 64.1946 332.576 61.2308Z" fill="url(#paint15_linear_1204_609)"/>
<path d="M343.634 93.1069C341.821 99.4549 338.254 105.163 333.344 109.576L272.523 164.354C268.26 168.199 263.261 171.141 257.83 173.002C252.398 174.862 246.646 175.603 240.92 175.179C240.563 175.179 240.195 175.179 239.869 175.084C223.305 173.424 203.778 166.33 208.907 141.358C217.493 99.539 302.445 64.5198 302.445 64.5198C330.034 52.8958 340.281 62.7542 343.76 74.9667C345.4 80.9082 345.356 87.1888 343.634 93.1069Z" fill="#FD8068"/>
<path d="M338.367 85.5504L337.453 95.4613C335.687 101.694 338.367 105.046 333.386 109.534L272.565 164.312C268.301 168.157 263.303 171.099 257.871 172.96C252.439 174.82 246.687 175.561 240.961 175.137L228.286 169.525C228.286 169.525 235.506 145.73 276.495 114.379C317.484 83.028 338.367 85.5504 338.367 85.5504Z" fill="url(#paint16_linear_1204_609)"/>
<path d="M275.781 336.728C275.515 336.714 275.25 336.772 275.014 336.896C274.823 337.044 274.681 337.246 274.604 337.475C273.721 339.577 274.52 342.057 275.382 344.201C275.483 344.522 275.66 344.814 275.897 345.052C276.15 345.24 276.446 345.36 276.759 345.399C278.966 345.735 281.068 344.348 283.306 344.148C284.449 344.205 285.594 344.177 286.733 344.064C287.68 343.775 288.529 343.229 289.186 342.487C289.843 341.745 290.281 340.836 290.453 339.86C290.782 337.919 290.743 335.933 290.338 334.006C290.331 333.707 290.211 333.421 290.001 333.208C289.825 333.098 289.62 333.043 289.413 333.05C288.397 332.991 287.385 333.228 286.501 333.733C285.745 334.164 285.104 334.784 284.399 335.236C281.867 336.739 278.598 336.676 275.781 336.728Z" fill="#FD8068"/>
<path d="M275.781 336.728C275.515 336.714 275.25 336.772 275.014 336.897C274.823 337.044 274.681 337.246 274.604 337.475C273.721 339.577 274.52 342.057 275.382 344.201C275.483 344.522 275.66 344.814 275.897 345.052C276.15 345.24 276.446 345.36 276.759 345.399C278.966 345.735 281.068 344.348 283.306 344.148C284.449 344.205 285.594 344.177 286.733 344.064C287.68 343.775 288.529 343.229 289.186 342.487C289.843 341.745 290.281 340.836 290.453 339.86C290.782 337.919 290.743 335.933 290.338 334.006C290.331 333.707 290.211 333.421 290.001 333.208C289.825 333.098 289.62 333.043 289.413 333.05C288.397 332.991 287.385 333.228 286.501 333.733C285.745 334.164 285.104 334.784 284.399 335.236C281.867 336.739 278.598 336.676 275.781 336.728Z" fill="url(#paint17_linear_1204_609)"/>
<path d="M278.934 344.285C278.121 344.542 277.377 344.98 276.758 345.567C275.413 346.975 275.518 349.172 275.802 351.095C276.127 353.355 276.569 355.597 277.126 357.811C277.42 358.967 277.893 360.292 279.028 360.67C279.612 360.812 280.221 360.812 280.805 360.67C290.84 358.922 300.732 356.435 310.401 353.229C310.786 353.148 311.134 352.941 311.388 352.64C311.594 352.256 311.639 351.807 311.515 351.39C310.253 344.852 303.968 345.283 298.85 344.474C292.26 343.423 285.366 341.868 278.934 344.285Z" fill="#ED4322"/>
<path d="M227.918 184.881C227.918 184.881 208.433 180.982 210.262 191.807C212.09 202.632 213.52 204.86 219.027 206.521C242.254 213.258 266.774 198.659 266.774 198.659C266.774 198.659 268.76 184.198 227.918 184.881Z" fill="#FD8068"/>
<path d="M227.918 184.881C227.918 184.881 208.433 180.982 210.262 191.807C212.09 202.632 213.52 204.86 219.027 206.521C242.254 213.258 266.774 198.659 266.774 198.659C266.774 198.659 268.76 184.198 227.918 184.881Z" fill="url(#paint18_linear_1204_609)"/>
<path d="M359.965 40.1382C359.345 42.7972 359.114 45.6664 357.548 47.8945L355.625 42.9128C355.522 42.4957 355.281 42.1254 354.942 41.8618C354.726 41.7651 354.491 41.7214 354.255 41.7342C354.019 41.747 353.79 41.8159 353.586 41.9354C352.883 42.3126 352.294 42.8713 351.88 43.5533C351.466 44.2353 351.242 45.0158 351.232 45.8135C351.233 47.4165 351.712 48.9826 352.608 50.3118C352.904 50.7047 353.112 51.1562 353.218 51.636C353.225 52.0666 353.1 52.489 352.86 52.8462C352.619 53.2033 352.275 53.478 351.873 53.6329C351.058 53.9242 350.191 54.0388 349.329 53.9692L344.737 53.9062C340.533 53.8431 335.772 53.5488 333.007 50.3748C333.638 49.45 335.109 49.3238 335.719 48.462C335.92 48.1251 336.026 47.7402 336.026 47.348C336.026 46.9558 335.92 46.5708 335.719 46.2339C335.301 45.5691 334.763 44.9881 334.132 44.5208L331.147 42.072C330.369 41.4204 329.529 40.5586 329.739 39.5706C330.138 37.6893 333.775 37.7839 333.743 35.8711C333.743 34.9357 332.755 34.3577 331.946 33.8847C331.137 33.4118 330.275 32.571 330.601 31.6987C330.979 30.6477 332.492 30.8053 333.48 30.2903C333.48 29.0502 331.568 28.5982 331.378 27.3896C331.353 27.0529 331.43 26.7165 331.599 26.4241C331.767 26.1317 332.02 25.8968 332.324 25.75C332.94 25.4773 333.606 25.3342 334.279 25.3296L338.882 24.9723C344.883 24.3372 350.926 24.2001 356.949 24.5624C358.141 24.6048 359.314 24.8723 360.407 25.3507C361.629 26.022 362.651 27.0047 363.371 28.1989C364.306 29.6913 363.917 30.1222 363.192 31.6566C361.814 34.3593 360.732 37.203 359.965 40.1382Z" fill="#ED4322"/>
<path d="M396.656 189.599L393.503 188.873C393.503 188.873 393.618 194.381 397.391 194.065L419.147 165.363C419.147 165.363 431.549 148.095 420.061 140.139C417.475 138.362 414.503 137.227 411.391 136.828C396.015 134.779 382.362 146.897 381.732 162.388L380.681 187.244L383.644 185.489L385.536 158.521C385.915 146.96 407.428 132.246 419.956 144.858C428.806 153.676 407.544 182.767 396.656 189.599Z" fill="url(#paint19_linear_1204_609)"/>
<path opacity="0.42" d="M298.566 342.918C276.664 342.918 142.778 327.531 115.851 324.41C113.202 324.125 110.765 322.826 109.052 320.784C107.34 318.742 106.484 316.117 106.665 313.458C106.991 309.864 109.377 305.387 118.941 304.493C120.623 304.336 286.795 288.907 302.981 287.162C311.536 286.248 319.408 288.56 325.136 293.668C327.806 296.124 329.926 299.118 331.356 302.454C332.785 305.789 333.491 309.389 333.428 313.017C333.523 332.639 322.371 342.445 299.323 342.907L298.566 342.918ZM119.099 306.585C112.572 307.194 109.083 309.57 108.715 313.647C108.582 315.764 109.274 317.849 110.646 319.466C112.017 321.082 113.962 322.105 116.072 322.318C143.324 325.471 280.216 341.236 299.302 340.805C321.257 340.343 331.442 331.514 331.347 313.027C331.406 309.691 330.756 306.38 329.439 303.314C328.121 300.249 326.167 297.498 323.706 295.245C318.451 290.526 311.147 288.392 303.18 289.254C286.984 290.998 120.812 306.427 119.12 306.585H119.099Z" fill="black"/>
<path d="M383.634 17.9727C383.634 20.7998 383.203 23.8477 381.017 25.9182C379.031 27.7994 376.014 28.5036 373.145 28.945C357.852 31.2669 342.219 28.5051 328.646 21.0836C326.334 19.7909 323.833 17.6153 324.778 15.3452C325.071 14.7282 325.525 14.2017 326.092 13.8212C326.772 13.368 327.493 12.9809 328.247 12.6651C334.553 9.82745 340.922 6.97925 347.354 4.30973C350.897 2.72461 354.591 1.49931 358.379 0.652265C364.475 -0.545868 373.597 -0.29363 378.81 3.25873C382.268 5.61296 383.245 10.7523 383.519 14.9668C383.603 16.0493 383.624 17.0793 383.634 17.9727Z" fill="#FD8068"/>
<path d="M383.518 14.9668C383.365 17.0507 382.479 19.013 381.017 20.5055C379.03 22.3973 376.014 23.1015 373.145 23.5429C357.85 25.8609 342.217 23.0954 328.646 15.671C327.722 15.1606 326.865 14.5394 326.092 13.8212C326.771 13.368 327.493 12.9809 328.246 12.6651C334.552 9.82745 340.921 6.97925 347.353 4.30972C350.897 2.72461 354.59 1.49931 358.378 0.652265C364.474 -0.545868 373.597 -0.29363 378.81 3.25873C382.267 5.61296 383.245 10.7523 383.518 14.9668Z" fill="url(#paint20_linear_1204_609)"/>
<path d="M333.439 68.1985C330.85 67.9635 328.267 68.7142 326.208 70.3005C321.31 73.7898 318.756 79.7069 317.222 85.5189C315.734 91.836 314.712 98.2538 314.164 104.721C313.438 111.415 312.713 118.257 314.164 124.847C314.615 126.949 315.435 129.23 317.317 130.323C319.545 131.637 322.361 130.817 324.81 129.976L340.354 124.595C341.533 124.345 342.569 123.648 343.245 122.651C343.59 121.718 343.615 120.698 343.318 119.75C341.584 111.342 342.719 100.443 343.402 91.9195C343.928 84.7622 345.431 69.8381 333.439 68.1985Z" fill="#FD8068"/>
<path d="M317.274 130.355C317.274 130.355 326.881 149.746 331.484 154.318C336.087 158.89 404.002 187.803 404.002 187.803C404.002 187.803 406.64 190.851 411.643 189.001C416.646 187.151 421.985 175.023 421.985 175.023C421.985 175.023 418.222 169.894 413.64 169.663C409.058 169.431 411.643 166.068 411.643 166.068L403.54 169.663C403.54 169.663 398.642 172.038 385.799 163.094C372.956 154.15 346.912 142.515 346.912 142.515L340.302 124.648L317.274 130.355Z" fill="url(#paint21_linear_1204_609)"/>
<path d="M327.248 59.5816L337.096 56.6914C337.096 56.6914 343.917 69.1877 343.475 73.3917L327.248 59.5816Z" fill="#FD8068"/>
<path d="M327.248 59.5816L337.096 56.6914C337.096 56.6914 343.917 69.1877 343.475 73.3917L327.248 59.5816Z" fill="url(#paint22_linear_1204_609)"/>
<path d="M343.202 122.682L342.151 129.755L319.912 135.619L315.193 128.136C315.193 128.136 331.337 125.383 343.202 122.682Z" fill="#FD8068"/>
<path d="M343.202 122.682L342.151 129.755L319.912 135.619L315.193 128.136C315.193 128.136 331.337 125.383 343.202 122.682Z" fill="url(#paint23_linear_1204_609)"/>
<path d="M207.613 168.264C207.613 168.264 207.729 192.636 233.636 196.84C259.543 201.044 311.494 190.314 311.494 190.314L323.569 167.139L264.64 151.805C264.64 151.805 212.133 145.499 207.613 168.264Z" fill="#ED4322"/>
<path d="M323.57 167.139L311.494 190.313C311.494 190.313 324.106 187.391 325.43 189.903C326.754 192.415 314.994 197.596 313.638 232.048C313.491 235.853 311.168 251.04 310.485 254.792L308.383 261.581C308.383 261.581 317.421 262.537 317.842 262.401C318.262 262.264 355.877 182.609 342.235 173.56C338.315 170.922 323.57 167.139 323.57 167.139Z" fill="url(#paint24_linear_1204_609)"/>
<path d="M302.308 261.855C302.308 261.155 302.464 260.464 302.766 259.833C303.068 259.202 303.508 258.646 304.053 258.208C304.515 257.96 305.022 257.809 305.544 257.762C306.066 257.715 306.592 257.774 307.09 257.934C308.084 258.252 309.054 258.642 309.991 259.101C312.085 259.974 314.345 260.383 316.612 260.299C317.6 260.299 318.714 260.215 319.366 260.993C319.575 261.378 319.691 261.807 319.703 262.245C319.716 262.683 319.626 263.118 319.439 263.515C318.902 265.246 318.216 266.926 317.39 268.539C317.289 268.789 317.126 269.01 316.917 269.18C316.692 269.31 316.441 269.389 316.181 269.411C312.386 269.981 308.522 269.892 304.757 269.149C300.437 268.287 302.014 265.102 302.308 261.855Z" fill="#FD8068"/>
<path d="M286.501 333.754C285.745 334.185 285.104 334.805 284.399 335.257L286.501 333.754Z" fill="url(#paint25_linear_1204_609)"/>
<path d="M302.308 261.855C302.308 261.155 302.464 260.464 302.766 259.833C303.068 259.202 303.508 258.646 304.053 258.208C304.515 257.96 305.022 257.809 305.544 257.762C306.066 257.715 306.592 257.774 307.09 257.934C308.084 258.252 309.054 258.642 309.991 259.101C312.085 259.974 314.345 260.383 316.612 260.299C317.6 260.299 318.714 260.215 319.366 260.993C319.575 261.378 319.691 261.807 319.703 262.245C319.716 262.683 319.626 263.118 319.439 263.515C318.902 265.246 318.216 266.926 317.39 268.539C317.289 268.789 317.126 269.01 316.917 269.18C316.692 269.31 316.441 269.389 316.181 269.411C312.386 269.981 308.522 269.892 304.757 269.149C300.437 268.287 302.014 265.102 302.308 261.855Z" fill="url(#paint26_linear_1204_609)"/>
<path d="M302.612 267.919C304.599 267.561 306.616 267.396 308.635 267.425C310.28 267.448 311.9 267.84 313.375 268.571C316.843 270.41 318.629 274.509 321.919 276.569C323.473 277.366 325.073 278.067 326.712 278.671C327.532 278.981 328.283 279.452 328.918 280.056C329.554 280.661 330.061 281.387 330.411 282.192C330.68 283.22 330.751 284.29 330.621 285.345C330.669 286.151 330.406 286.945 329.886 287.562C329.27 287.984 328.526 288.174 327.784 288.098C325.303 288.098 302.865 284.451 294.467 282.927C294.026 282.854 289.496 283.863 291.22 278.335C291.831 276.309 292.641 274.348 293.637 272.481C295.182 269.254 299.491 268.382 302.612 267.919Z" fill="#ED4322"/>
<path d="M297.653 357.044L293.375 355.72L315.215 285.871L319.482 287.185L297.653 357.044Z" fill="#FD8068"/>
<path d="M297.653 357.044L293.375 355.72L315.215 285.871L319.482 287.185L297.653 357.044Z" fill="url(#paint27_linear_1204_609)"/>
<path d="M304.82 284.883L303.212 290.274L329.497 293.827L330.233 289.139L304.82 284.883ZM282.076 359.157L282.738 364.737L308.277 357.549L307.09 352.945L282.076 359.157Z" fill="#FD8068"/>
<path d="M304.82 284.883L303.212 290.274L329.497 293.827L330.233 289.139L304.82 284.883Z" fill="url(#paint28_linear_1204_609)"/>
<path d="M282.076 359.157L282.738 364.737L308.277 357.549L307.09 352.945L282.076 359.157Z" fill="url(#paint29_linear_1204_609)"/>
<path d="M308.235 319.114C310.331 319.114 312.03 317.415 312.03 315.319C312.03 313.224 310.331 311.525 308.235 311.525C306.14 311.525 304.441 313.224 304.441 315.319C304.441 317.415 306.14 319.114 308.235 319.114Z" fill="#FD8068"/>
<path d="M308.792 319.114C310.888 319.114 312.586 317.415 312.586 315.319C312.586 313.224 310.888 311.525 308.792 311.525C306.697 311.525 304.998 313.224 304.998 315.319C304.998 317.415 306.697 319.114 308.792 319.114Z" fill="url(#paint30_linear_1204_609)"/>
<path d="M348.835 120.77L343.044 123.849L342.214 129.745L348.835 126.193V120.77Z" fill="#FD8068"/>
<path d="M348.835 120.77L343.044 123.849L342.214 129.745L348.835 126.193V120.77Z" fill="url(#paint31_linear_1204_609)"/>
</g>
<defs>
<linearGradient id="paint0_linear_1204_609" x1="324.568" y1="155.63" x2="423.425" y2="155.63" gradientUnits="userSpaceOnUse">
<stop stop-color="#ECCAC4"/>
<stop offset="0.42" stop-color="#EFD6D1"/>
<stop offset="1" stop-color="#F2D0C9"/>
</linearGradient>
<linearGradient id="paint1_linear_1204_609" x1="390.066" y1="143.754" x2="341.143" y2="174.138" gradientUnits="userSpaceOnUse">
<stop stop-opacity="0"/>
<stop offset="0.88" stop-opacity="0.8"/>
<stop offset="0.97"/>
</linearGradient>
<linearGradient id="paint2_linear_1204_609" x1="351.085" y1="104.448" x2="338.851" y2="103.46" gradientUnits="userSpaceOnUse">
<stop stop-opacity="0"/>
<stop offset="0.88" stop-opacity="0.8"/>
<stop offset="0.97"/>
</linearGradient>
<linearGradient id="paint3_linear_1204_609" x1="259.352" y1="343.999" x2="261.099" y2="438.786" gradientUnits="userSpaceOnUse">
<stop stop-opacity="0"/>
<stop offset="0.88" stop-opacity="0.8"/>
<stop offset="0.97"/>
</linearGradient>
<linearGradient id="paint4_linear_1204_609" x1="319.324" y1="255.528" x2="294.467" y2="369.75" gradientUnits="userSpaceOnUse">
<stop stop-opacity="0"/>
<stop offset="0.88" stop-opacity="0.8"/>
<stop offset="0.97"/>
</linearGradient>
<linearGradient id="paint5_linear_1204_609" x1="365.914" y1="280.699" x2="425.853" y2="273.269" gradientUnits="userSpaceOnUse">
<stop stop-color="white" stop-opacity="0"/>
<stop offset="0.84" stop-color="white" stop-opacity="0.84"/>
<stop offset="0.97" stop-color="white"/>
</linearGradient>
<linearGradient id="paint6_linear_1204_609" x1="239.805" y1="282.767" x2="295.053" y2="294.088" gradientUnits="userSpaceOnUse">
<stop stop-color="#ECCAC4"/>
<stop offset="0.42" stop-color="#EFD6D1"/>
<stop offset="1" stop-color="#F2D0C9"/>
</linearGradient>
<linearGradient id="paint7_linear_1204_609" x1="292.88" y1="246.11" x2="304.326" y2="264.66" gradientUnits="userSpaceOnUse">
<stop stop-opacity="0"/>
<stop offset="0.88" stop-opacity="0.8"/>
<stop offset="0.97"/>
</linearGradient>
<linearGradient id="paint8_linear_1204_609" x1="388.163" y1="204.734" x2="371.957" y2="205.312" gradientUnits="userSpaceOnUse">
<stop stop-opacity="0"/>
<stop offset="0.88" stop-opacity="0.8"/>
<stop offset="0.97"/>
</linearGradient>
<linearGradient id="paint9_linear_1204_609" x1="401.018" y1="200.635" x2="384.822" y2="204.639" gradientUnits="userSpaceOnUse">
<stop stop-color="white" stop-opacity="0"/>
<stop offset="0.84" stop-color="white" stop-opacity="0.84"/>
<stop offset="0.97" stop-color="white"/>
</linearGradient>
<linearGradient id="paint10_linear_1204_609" x1="393.335" y1="202.412" x2="367.438" y2="208.812" gradientUnits="userSpaceOnUse">
<stop stop-color="white" stop-opacity="0"/>
<stop offset="0.84" stop-color="white" stop-opacity="0.84"/>
<stop offset="0.97" stop-color="white"/>
</linearGradient>
<linearGradient id="paint11_linear_1204_609" x1="222.295" y1="260.72" x2="231.565" y2="262.496" gradientUnits="userSpaceOnUse">
<stop stop-opacity="0"/>
<stop offset="0.88" stop-opacity="0.8"/>
<stop offset="0.97"/>
</linearGradient>
<linearGradient id="paint12_linear_1204_609" x1="304.084" y1="207.792" x2="307.426" y2="221.171" gradientUnits="userSpaceOnUse">
<stop stop-opacity="0"/>
<stop offset="0.88" stop-opacity="0.8"/>
<stop offset="0.97"/>
</linearGradient>
<linearGradient id="paint13_linear_1204_609" x1="224.135" y1="263.021" x2="374.479" y2="263.021" gradientUnits="userSpaceOnUse">
<stop stop-opacity="0"/>
<stop offset="0.88" stop-opacity="0.8"/>
<stop offset="0.97"/>
</linearGradient>
<linearGradient id="paint14_linear_1204_609" x1="130.691" y1="269.297" x2="235.559" y2="284.736" gradientUnits="userSpaceOnUse">
<stop stop-opacity="0"/>
<stop offset="0.88" stop-opacity="0.8"/>
<stop offset="0.97"/>
</linearGradient>
<linearGradient id="paint15_linear_1204_609" x1="332.576" y1="44.7827" x2="382.677" y2="44.7827" gradientUnits="userSpaceOnUse">
<stop stop-color="#ECCAC4"/>
<stop offset="0.42" stop-color="#EFD6D1"/>
<stop offset="1" stop-color="#F2D0C9"/>
</linearGradient>
<linearGradient id="paint16_linear_1204_609" x1="198.732" y1="176.703" x2="390.738" y2="78.9817" gradientUnits="userSpaceOnUse">
<stop stop-opacity="0"/>
<stop offset="0.88" stop-opacity="0.8"/>
<stop offset="0.97"/>
</linearGradient>
<linearGradient id="paint17_linear_1204_609" x1="304.894" y1="340.449" x2="259.323" y2="337.926" gradientUnits="userSpaceOnUse">
<stop stop-color="white" stop-opacity="0"/>
<stop offset="0.84" stop-color="white" stop-opacity="0.84"/>
<stop offset="0.97" stop-color="white"/>
</linearGradient>
<linearGradient id="paint18_linear_1204_609" x1="176.966" y1="195.517" x2="239.7" y2="196.41" gradientUnits="userSpaceOnUse">
<stop stop-opacity="0"/>
<stop offset="0.88" stop-opacity="0.8"/>
<stop offset="0.97"/>
</linearGradient>
<linearGradient id="paint19_linear_1204_609" x1="376.34" y1="174.759" x2="450.025" y2="145.762" gradientUnits="userSpaceOnUse">
<stop stop-color="white" stop-opacity="0"/>
<stop offset="0.52" stop-color="white" stop-opacity="0.84"/>
<stop offset="0.97" stop-color="white"/>
</linearGradient>
<linearGradient id="paint20_linear_1204_609" x1="350.811" y1="-8.01844" x2="358.704" y2="34.9882" gradientUnits="userSpaceOnUse">
<stop stop-opacity="0"/>
<stop offset="0.88" stop-opacity="0.8"/>
<stop offset="0.97"/>
</linearGradient>
<linearGradient id="paint21_linear_1204_609" x1="317.274" y1="157.114" x2="421.974" y2="157.114" gradientUnits="userSpaceOnUse">
<stop stop-color="#ECCAC4"/>
<stop offset="0.42" stop-color="#EFD6D1"/>
<stop offset="1" stop-color="#F2D0C9"/>
</linearGradient>
<linearGradient id="paint22_linear_1204_609" x1="348.909" y1="62.8502" x2="333.522" y2="66.7915" gradientUnits="userSpaceOnUse">
<stop stop-opacity="0"/>
<stop offset="0.88" stop-opacity="0.8"/>
<stop offset="0.97"/>
</linearGradient>
<linearGradient id="paint23_linear_1204_609" x1="329.392" y1="110.101" x2="329.098" y2="137.921" gradientUnits="userSpaceOnUse">
<stop stop-opacity="0"/>
<stop offset="0.88" stop-opacity="0.8"/>
<stop offset="0.97"/>
</linearGradient>
<linearGradient id="paint24_linear_1204_609" x1="294.175" y1="225.133" x2="354.278" y2="201.639" gradientUnits="userSpaceOnUse">
<stop stop-color="#ECCAC4"/>
<stop offset="0.42" stop-color="#EFD6D1"/>
<stop offset="1" stop-color="#F2D0C9"/>
</linearGradient>
<linearGradient id="paint25_linear_1204_609" x1="284.347" y1="334.5" x2="286.501" y2="334.5" gradientUnits="userSpaceOnUse">
<stop stop-color="white" stop-opacity="0"/>
<stop offset="0.84" stop-color="white" stop-opacity="0.84"/>
<stop offset="0.97" stop-color="white"/>
</linearGradient>
<linearGradient id="paint26_linear_1204_609" x1="319.818" y1="267.194" x2="300.879" y2="261.665" gradientUnits="userSpaceOnUse">
<stop stop-color="white" stop-opacity="0"/>
<stop offset="0.84" stop-color="white" stop-opacity="0.84"/>
<stop offset="0.97" stop-color="white"/>
</linearGradient>
<linearGradient id="paint27_linear_1204_609" x1="300.553" y1="319.839" x2="312.387" y2="323.097" gradientUnits="userSpaceOnUse">
<stop stop-opacity="0"/>
<stop offset="0.88" stop-opacity="0.8"/>
<stop offset="0.97"/>
</linearGradient>
<linearGradient id="paint28_linear_1204_609" x1="317.726" y1="281.33" x2="316.097" y2="294.951" gradientUnits="userSpaceOnUse">
<stop stop-opacity="0"/>
<stop offset="0.88" stop-opacity="0.8"/>
<stop offset="0.97"/>
</linearGradient>
<linearGradient id="paint29_linear_1204_609" x1="292.586" y1="349.677" x2="296.58" y2="365.358" gradientUnits="userSpaceOnUse">
<stop stop-opacity="0"/>
<stop offset="0.88" stop-opacity="0.8"/>
<stop offset="0.97"/>
</linearGradient>
<linearGradient id="paint30_linear_1204_609" x1="304.998" y1="315.319" x2="312.586" y2="315.319" gradientUnits="userSpaceOnUse">
<stop stop-opacity="0"/>
<stop offset="0.88" stop-opacity="0.8"/>
<stop offset="0.97"/>
</linearGradient>
<linearGradient id="paint31_linear_1204_609" x1="349.014" y1="132.551" x2="343.391" y2="120.812" gradientUnits="userSpaceOnUse">
<stop stop-opacity="0"/>
<stop offset="0.88" stop-opacity="0.8"/>
<stop offset="0.97"/>
</linearGradient>
<clipPath id="clip0_1204_609">
<rect width="500" height="395.983" fill="white"/>
</clipPath>
</defs>
</svg>
