<svg width="450" height="390" viewBox="0 0 450 390" fill="none" xmlns="http://www.w3.org/2000/svg">
<g clip-path="url(#clip0_1204_576)">
<path opacity="0.24" d="M444.92 238.507C444.167 237.682 443.345 236.922 442.462 236.237C444.101 171.395 438.955 36.7305 438.734 30.9051L437.546 0L278.777 84.7923L162.981 17.7385L153.378 23.0723C139.81 30.6101 20.647 96.8119 14.8543 100.196L5.12891 105.841L5.29277 118.393C5.75979 157.393 8.07849 386.314 8.10307 389.37C8.10307 389.37 54.2231 362.152 61.6134 357.711C73.9034 350.296 90.9618 339.94 112.207 326.937C137.27 311.583 162.686 295.909 175.246 288.158C221.055 313.213 269.469 340.136 277.097 345.167C280.704 348.236 285.29 349.913 290.026 349.894C295.761 349.894 299.489 349.894 368.485 316.4C401.586 300.341 434.654 283.783 438.505 281.841C444.928 278.564 448.984 272.255 449.639 264.447C449.787 262.66 449.779 260.915 449.779 259.064C449.779 257.212 449.779 255.196 449.926 253.418C450.17 250.722 449.852 248.004 448.99 245.437C448.128 242.87 446.742 240.51 444.92 238.507ZM291.239 323.037C285.724 319.448 271.861 311.435 234.648 290.821C206.487 275.254 178.229 259.809 177.95 259.686L174.394 257.744L170.953 259.875C125.021 288.264 58.7868 328.936 34.2806 343.364C33.7808 299.899 31.9701 148.757 31.6424 120.9C51.3063 109.872 143.604 58.582 162.735 47.9799L278.26 114.935L412.827 43.0475C414.195 81.8673 418.407 211.149 415.334 254C415.22 255.652 415.685 257.292 416.65 258.638C417.614 259.984 419.018 260.951 420.619 261.374C383.823 279.817 306.74 317.654 291.239 323.037Z" fill="#ED4322"/>
<path d="M24.6289 110.323C30.3642 106.947 162.776 33.4126 162.776 33.4126C162.776 33.4126 280.587 97.7627 280.661 93.1581C280.735 88.5534 421.651 26.604 419.382 25.1128C417.432 23.8101 425.936 196.598 422.282 247.97C422.2 249.093 430.729 244.128 430.639 245.127C430.049 251.493 430.901 257.474 429.771 258.048C421.979 261.981 291.894 327.052 289.665 323.906C287.437 320.759 174.656 259.261 174.656 259.261C174.656 259.261 27.4556 350.214 27.4556 348.494C27.4556 346.773 24.6289 110.323 24.6289 110.323Z" fill="#FD8068"/>
<path d="M21.2946 358.285L21.2536 352.066C21.2536 349.428 18.4515 116.313 18.4269 113.961L18.4023 110.323L21.5158 108.505C27.2511 105.137 154.378 34.5273 159.786 31.4876L162.858 29.7834L278.531 96.8045L425.191 18.5586L425.609 28.4315C425.863 35.0599 431.483 183.072 429.017 242.481C429.5 242.381 429.991 242.329 430.484 242.326C431.373 242.323 432.253 242.505 433.069 242.86C433.884 243.216 434.616 243.737 435.22 244.39C435.814 245.038 436.267 245.802 436.549 246.634C436.831 247.467 436.936 248.349 436.858 249.224C436.637 251.625 436.645 254.009 436.653 256.115C436.653 260.711 436.653 265.054 432.606 267.11C428.763 269.052 395.736 285.578 362.783 301.579C296.507 333.738 292.476 333.746 290.067 333.746C289.192 333.761 288.323 333.6 287.511 333.274C286.699 332.948 285.961 332.462 285.34 331.845C279.35 327.413 215.992 292.403 174.878 269.953C165.382 275.82 135.329 294.369 105.366 312.722C84.1945 325.7 67.2016 336.032 54.8707 343.447C30.1925 358.285 29.7337 358.285 27.5379 358.285H21.2946Z" fill="url(#paint0_linear_1204_576)"/>
<path opacity="0.13" d="M292.353 156.975L420.619 91.7072L419.357 26.4395L294.696 93.0181L292.353 156.975ZM27.0215 188.15L160.81 127.52V185.512L27.0215 259.719V188.15Z" fill="white"/>
<path d="M439.751 237.99C438.528 236.649 437.026 235.592 435.351 234.893C437.293 171.928 431.992 32.4045 431.746 25.9645L430.984 6.17773L413.516 15.5017L301.595 75.3127L278.613 87.6026L270.854 83.1045L243.144 67.0047L211.338 48.578L168.971 23.9981L162.883 20.4668L156.738 23.8834C151.322 26.8904 24.1705 97.5247 18.3451 100.9L12.1182 104.587L12.2083 111.797C12.2083 114.149 15.0104 346.552 15.035 349.878C15.0523 353.164 16.3692 356.309 18.698 358.627C21.0268 360.945 24.1783 362.248 27.4642 362.25C31.2905 362.25 33.6829 360.865 40.7865 356.744C44.834 354.393 50.6184 350.96 57.9924 346.527C70.3397 339.104 87.3408 328.756 108.537 315.778C135.796 299.08 163.129 282.185 175.001 274.885C214.91 296.695 273.664 329.174 281.333 334.425C283.709 336.563 286.799 337.732 289.994 337.703C294.041 337.703 297.859 337.703 365.372 304.93C398.35 288.92 431.434 272.361 435.293 270.411C437.751 269.166 442.012 265.971 442.667 258.654C442.79 257.171 442.782 255.639 442.782 253.869C442.782 251.903 442.782 249.666 442.962 247.568C443.121 245.836 442.917 244.091 442.364 242.442C441.811 240.793 440.921 239.277 439.751 237.99ZM429.747 259.35C422.143 263.185 297.949 325.323 289.994 325.323C289.927 325.332 289.86 325.326 289.797 325.306C289.733 325.286 289.674 325.253 289.625 325.208C287.38 322.062 174.616 260.563 174.616 260.563C174.616 260.563 30.1844 349.87 27.4642 349.87C27.4642 348.149 24.6375 111.691 24.6375 111.691C30.3728 108.315 162.785 34.7805 162.785 34.7805L203.087 58.1314L229.97 73.6986L271.665 97.8606L278.4 101.761L301.874 89.2249L419.39 26.4643C419.39 26.4643 425.945 197.95 422.291 249.322C422.291 249.436 422.364 249.486 422.52 249.486C423.733 249.486 429.37 246.348 430.468 246.348C430.59 246.348 430.656 246.389 430.648 246.479C430.025 252.796 430.877 258.777 429.747 259.35Z" fill="white"/>
<path d="M301.595 75.2793L278.613 87.5692L270.854 83.0711C272.634 87.9081 272.881 93.1766 271.559 98.1587C270.237 103.141 267.411 107.594 263.466 110.912C259.522 114.23 254.65 116.251 249.515 116.699C244.38 117.148 239.232 116.002 234.771 113.419C230.311 110.835 226.756 106.939 224.59 102.262C222.425 97.5843 221.754 92.3529 222.669 87.2803C223.584 82.2078 226.041 77.5408 229.705 73.9153C233.369 70.2898 238.062 67.8822 243.144 67.0205L211.337 48.5938C208.2 51.4196 205.419 54.6167 203.054 58.1143C200.306 62.1942 198.035 66.5763 196.286 71.1745C187.962 92.731 190.436 116.983 202.251 136.852L235.672 206.798C235.672 206.798 296.974 140.121 301.841 89.1997C302.319 84.5666 302.237 79.8926 301.595 75.2793Z" fill="url(#paint1_linear_1204_576)"/>
<path d="M3.3105 278.916C-0.220803 284.799 -1.98236 293.508 3.48256 297.646C5.71114 299.325 8.75085 299.858 10.6107 301.947C13.3964 305.077 12.1429 310.042 10.0864 313.705C8.02984 317.367 5.24412 320.972 5.35063 325.175C5.53908 332.549 14.0027 336.408 21.0572 338.538C23.0645 339.145 25.1538 339.759 27.2267 339.358C29.2996 338.956 31.0858 337.58 32.6753 336.154C38.8867 330.555 43.8022 323.668 47.0791 315.974C48.4146 312.82 49.4633 309.231 48.2261 306.036C47.2429 303.488 44.9488 301.693 43.3101 299.563C41.2668 296.906 40.0266 293.719 39.7362 290.38C39.4459 287.041 40.1174 283.688 41.6715 280.718C43.3101 277.679 45.8501 275.204 47.6526 272.247C54.707 260.71 37.2307 256.45 33.3225 248.347C30.3811 242.251 32.9374 236.811 22.7614 234.852C13.7897 233.124 9.83236 237.31 8.87375 245.954C8.21009 252.009 11.7578 257.425 11.0859 263.373C10.4141 269.322 6.22731 274.049 3.3105 278.916Z" fill="#FD8068"/>
<path d="M26.0132 340.955L27.6519 368.337C27.8403 371.557 28.971 375.711 32.1991 375.818C35.2061 375.891 36.6809 372.155 36.8611 369.148C37.4265 359.677 33.7313 350.558 30.9374 341.496C28.1435 332.434 26.3 322.299 30.3147 313.713C31.4454 311.304 33.0349 308.567 31.8304 306.191C30.5959 310.803 28.6261 315.185 25.9968 319.169L21.9002 293.164C21.4495 290.28 20.7367 287.019 18.1886 285.593L21.4659 313.508L17.4922 312.779C15.4111 312.402 22.8916 323.987 23.1374 324.569C25.3168 329.689 25.6855 335.466 26.0132 340.955ZM384.92 277.564C385.985 267.494 396.932 261.743 401.848 252.886C402.724 251.329 403.429 249.526 403.052 247.773C402.552 245.462 400.389 243.979 398.628 242.415C390.434 235.123 389.336 221.194 396.301 212.714C401.004 206.979 408.82 203.374 410.721 196.221C411.745 192.378 410.762 188.331 410.377 184.373C409.885 179.367 410.377 174.107 412.933 169.748C415.489 165.389 420.233 162.145 425.223 162.432C433.048 162.874 438.209 171.444 438.447 179.244C438.685 187.044 435.555 194.558 433.777 202.186C433.138 204.914 432.679 207.79 433.392 210.494C434.457 214.59 437.882 217.458 440.504 220.719C446.698 228.437 447.984 241.202 440.315 247.445C436.014 250.952 429.057 252.771 428.468 258.293C428.099 261.685 430.631 264.749 433.482 266.618C436.333 268.486 439.651 269.633 442.322 271.755C449.041 277.089 449.492 288.576 443.207 294.426C440.889 296.572 437.955 297.941 435.555 299.989C433.154 302.037 431.253 305.216 432.105 308.248C432.433 309.411 433.13 310.435 433.408 311.607C434.014 314.163 432.409 316.834 430.229 318.284C428.05 319.735 425.379 320.251 422.798 320.742C416.948 321.824 409.861 323.061 404.773 319.055C399.685 315.048 401.946 311.492 400.07 306.388C396.317 296.113 383.577 290.304 384.92 277.564Z" fill="#FD8068"/>
<path d="M416.219 279.105C416.1 278.239 416.032 277.366 416.015 276.491C416.03 276.157 416.171 275.84 416.41 275.605C416.649 275.37 416.969 275.234 417.304 275.225C417.639 275.216 417.965 275.334 418.217 275.555C418.468 275.776 418.627 276.084 418.661 276.418L419.661 290.182C419.784 291.821 420.627 294 422.209 293.583C422.598 290.278 423.548 287.063 425.019 284.078C425.149 283.811 425.371 283.599 425.644 283.48C425.917 283.362 426.224 283.346 426.508 283.434C426.792 283.522 427.035 283.709 427.193 283.961C427.352 284.213 427.415 284.513 427.371 284.808C426.994 287.216 425.83 289.65 424.913 291.968C416.088 314.549 431.344 341.128 422.954 363.848C422.282 364.774 421.062 363.307 420.906 362.21C418.845 347.163 418.334 331.945 419.382 316.794C420.259 304.127 417.883 291.649 416.219 279.105Z" fill="#FD8068"/>
<path d="M26.0132 340.956L27.6519 368.338C27.8403 371.558 28.971 375.712 32.1991 375.818C35.2061 375.892 36.6809 372.156 36.8611 369.149C37.4265 359.677 33.7313 350.558 30.9374 341.497C28.1435 332.435 26.3 322.3 30.3147 313.713C31.4454 311.304 33.0349 308.568 31.8304 306.192C30.5959 310.803 28.6261 315.185 25.9968 319.17L21.9002 293.164C21.4496 290.28 20.7367 287.019 18.1886 285.594L21.4659 313.508L17.4922 312.779C15.4111 312.402 22.8916 323.987 23.1374 324.569C25.3168 329.69 25.6855 335.466 26.0132 340.956Z" fill="url(#paint2_linear_1204_576)"/>
<path d="M416.219 279.105C416.1 278.239 416.032 277.366 416.015 276.491C416.03 276.157 416.171 275.84 416.41 275.605C416.649 275.37 416.969 275.234 417.304 275.225C417.639 275.216 417.965 275.334 418.217 275.555C418.468 275.776 418.627 276.084 418.661 276.418L419.661 290.182C419.784 291.821 420.627 294 422.209 293.583C422.623 290.04 423.687 286.604 425.347 283.447C425.467 283.215 425.664 283.032 425.905 282.929C426.146 282.827 426.415 282.812 426.665 282.887C426.916 282.962 427.133 283.122 427.278 283.339C427.423 283.557 427.488 283.818 427.461 284.078C427.223 286.717 425.92 289.42 424.921 291.969C416.097 314.549 431.353 341.128 422.963 363.848C422.291 364.774 421.07 363.307 420.914 362.21C418.85 347.163 418.337 331.945 419.382 316.794C420.259 304.127 417.883 291.649 416.219 279.105Z" fill="url(#paint3_linear_1204_576)"/>
<path d="M289.313 63.8341C282.832 44.9404 268.551 28.2015 238.187 29.1519C207.241 30.1187 192.305 47.1771 185.209 65.4727C176.885 87.0293 179.359 111.29 191.174 131.15L235.672 206.782L276.106 135.722C285.954 115.46 297.744 88.373 289.313 63.8341ZM236.253 111.085C231.296 111.085 226.45 109.615 222.328 106.86C218.206 104.106 214.994 100.191 213.097 95.6109C211.2 91.0307 210.705 85.9909 211.672 81.1289C212.64 76.2669 215.028 71.801 218.534 68.2962C222.04 64.7914 226.507 62.405 231.369 61.4388C236.231 60.4727 241.271 60.9702 245.85 62.8684C250.43 64.7667 254.344 67.9804 257.097 72.1031C259.85 76.2258 261.318 81.0723 261.317 86.0297C261.317 89.3207 260.668 92.5794 259.409 95.6198C258.149 98.6601 256.303 101.423 253.975 103.749C251.648 106.076 248.885 107.921 245.844 109.18C242.803 110.439 239.544 111.086 236.253 111.085Z" fill="#FD8068"/>
<path opacity="0.2" d="M206.848 65.4724C215.098 49.815 225.979 33.5185 251.091 29.9053C246.846 29.2451 242.546 28.9926 238.252 29.1515C207.306 30.1183 192.37 47.1768 185.275 65.4724C176.95 87.0289 179.425 111.289 191.239 131.15L235.737 206.782C235.737 206.782 182.784 111.084 206.848 65.4724Z" fill="white"/>
<path opacity="0.13" d="M232.796 86.0303C232.795 81.2976 234.134 76.6614 236.657 72.6571C239.179 68.6528 242.783 65.4437 247.052 63.4004C243.231 61.5799 239.012 60.7565 234.788 61.0068C230.563 61.2571 226.471 62.5731 222.892 64.832C219.314 67.0909 216.365 70.2191 214.322 73.9252C212.279 77.6312 211.207 81.7942 211.207 86.0262C211.207 90.2581 212.279 94.4212 214.322 98.1272C216.365 101.833 219.314 104.961 222.892 107.22C226.471 109.479 230.563 110.795 234.788 111.046C239.012 111.296 243.231 110.472 247.052 108.652C242.783 106.611 239.179 103.403 236.656 99.4003C234.133 95.3972 232.795 90.762 232.796 86.0303Z" fill="white"/>
<path d="M162.85 34.7969C162.307 34.7969 161.786 35.0127 161.402 35.3968C161.017 35.7809 160.802 36.3019 160.802 36.8452V123.071C148.241 128.405 67.2999 162.899 60.5568 169.732C60.2346 170.128 60.0716 170.629 60.0998 171.139C60.128 171.648 60.3452 172.129 60.709 172.486C61.0728 172.844 61.557 173.053 62.0668 173.073C62.5766 173.092 63.0754 172.92 63.4654 172.592C68.152 167.839 123.342 143.415 160.793 127.529V228.552C160.793 229.095 161.009 229.616 161.393 230C161.778 230.384 162.299 230.6 162.842 230.6C163.385 230.6 163.906 230.384 164.29 230C164.674 229.616 164.89 229.095 164.89 228.552V36.8288C164.888 36.2892 164.672 35.7723 164.29 35.3915C163.907 35.0107 163.39 34.7969 162.85 34.7969Z" fill="url(#paint4_linear_1204_576)"/>
<path d="M365.101 198.86C364.84 198.383 364.4 198.028 363.878 197.875C363.355 197.721 362.794 197.781 362.315 198.041L292.353 236.394V156.976C292.353 156.433 292.137 155.912 291.753 155.528C291.369 155.144 290.848 154.928 290.304 154.928C289.761 154.928 289.24 155.144 288.856 155.528C288.472 155.912 288.256 156.433 288.256 156.976V236.295C281.554 232.371 264.914 222.653 248.388 213.084C235.885 205.849 225.905 200.122 218.712 196.058C214.435 193.641 211.108 191.798 208.814 190.56C204.783 188.389 203.423 187.66 202.259 189.34C201.997 189.716 201.284 191.077 203.03 192.453C203.427 192.76 203.921 192.915 204.422 192.887C212.067 196.681 257.367 222.957 288.24 241.039V322.751C288.24 323.294 288.456 323.815 288.84 324.199C289.224 324.583 289.745 324.799 290.288 324.799C290.831 324.799 291.352 324.583 291.736 324.199C292.121 323.815 292.336 323.294 292.336 322.751V241.08L364.274 201.646C364.752 201.386 365.108 200.946 365.264 200.424C365.419 199.902 365.36 199.339 365.101 198.86Z" fill="url(#paint5_linear_1204_576)"/>
<path opacity="0.24" d="M24.6045 111.658L161.121 35.7559L160.81 69.3238L24.9568 140.999L24.6045 111.658Z" fill="white"/>
<path opacity="0.13" d="M164.906 188.15L288.256 252.337V322.75L170.977 259.85L164.906 188.15Z" fill="white"/>
<path d="M292.197 173.207C292.197 173.207 294.524 174.518 299.44 174.067" stroke="white" stroke-width="5" stroke-miterlimit="10"/>
<path d="M313.713 169.462C318.823 166.786 323.668 163.631 328.182 160.039C353.098 140.638 390.754 136.664 400.947 146.373C457.21 200.088 346.207 294.819 292.197 297.768C263.643 299.325 246.118 247.339 239.146 221.268" stroke="white" stroke-width="5" stroke-miterlimit="10" stroke-dasharray="18.4 18.4"/>
<path d="M237.286 213.976C236.204 209.495 235.647 206.783 235.647 206.783L231.936 200.449" stroke="white" stroke-width="5" stroke-miterlimit="10"/>
<path d="M224.602 187.97L217.286 175.525C198.892 144.267 164.898 156.975 164.898 156.975C164.898 156.975 129.56 182.153 123.325 228.2C117.09 274.246 72.3383 291.534 59.9665 281.866C47.5946 272.197 27.1278 164.153 70.7324 132.699C99.368 112.027 123.833 122.096 137.246 131.437" stroke="white" stroke-width="5" stroke-miterlimit="10" stroke-dasharray="17.64 17.64"/>
<path d="M142.94 135.861C144.817 137.451 146.583 139.167 148.225 140.999" stroke="white" stroke-width="5" stroke-miterlimit="10"/>
</g>
<defs>
<linearGradient id="paint0_linear_1204_576" x1="228.364" y1="68.1608" x2="224.242" y2="675.8" gradientUnits="userSpaceOnUse">
<stop stop-opacity="0"/>
<stop offset="0.97"/>
</linearGradient>
<linearGradient id="paint1_linear_1204_576" x1="255.753" y1="46.7666" x2="203.98" y2="295.843" gradientUnits="userSpaceOnUse">
<stop stop-opacity="0"/>
<stop offset="0.97"/>
</linearGradient>
<linearGradient id="paint2_linear_1204_576" x1="20.9252" y1="268.74" x2="35.2307" y2="427.452" gradientUnits="userSpaceOnUse">
<stop stop-opacity="0"/>
<stop offset="0.97"/>
</linearGradient>
<linearGradient id="paint3_linear_1204_576" x1="421.029" y1="250.781" x2="431.18" y2="670.638" gradientUnits="userSpaceOnUse">
<stop stop-opacity="0"/>
<stop offset="0.97"/>
</linearGradient>
<linearGradient id="paint4_linear_1204_576" x1="116.804" y1="330.796" x2="110.347" y2="-4.1704" gradientUnits="userSpaceOnUse">
<stop stop-opacity="0"/>
<stop offset="0.83" stop-opacity="0.47"/>
<stop offset="0.97"/>
</linearGradient>
<linearGradient id="paint5_linear_1204_576" x1="286.028" y1="100.287" x2="274.95" y2="539.054" gradientUnits="userSpaceOnUse">
<stop stop-opacity="0"/>
<stop offset="0.9" stop-opacity="0.83"/>
<stop offset="0.97"/>
</linearGradient>
<clipPath id="clip0_1204_576">
<rect width="450" height="389.361" fill="white"/>
</clipPath>
</defs>
</svg>
