<svg width="75" height="75" viewBox="0 0 75 75" fill="none" xmlns="http://www.w3.org/2000/svg">
<path d="M58.5 50H20.5846C18.9254 50 18.0957 50 17.408 50.3894C16.7202 50.7788 16.2934 51.4902 15.4397 52.913L12.5 57.8125V13.375C12.5 11.4894 12.5 10.5466 13.0858 9.96079C13.6716 9.375 14.6144 9.375 16.5 9.375H58.5C60.3856 9.375 61.3284 9.375 61.9142 9.96079C62.5 10.5466 62.5 11.4894 62.5 13.375V46C62.5 47.8856 62.5 48.8284 61.9142 49.4142C61.3284 50 60.3856 50 58.5 50Z" fill="#ED4322" fill-opacity="0.5"/>
<path d="M62.5 37.5V61.625C62.5 63.5106 62.5 64.4534 61.9142 65.0392C61.3284 65.625 60.3856 65.625 58.5 65.625H18.5C15.6716 65.625 14.2574 65.625 13.3787 64.7463C12.5 63.8676 12.5 62.4534 12.5 59.625V56C12.5 53.1716 12.5 51.7574 13.3787 50.8787C14.2574 50 15.6716 50 18.5 50H58.5C60.3856 50 61.3284 50 61.9142 49.4142C62.5 48.8284 62.5 47.8856 62.5 46V13.375C62.5 11.4894 62.5 10.5466 61.9142 9.96079C61.3284 9.375 60.3856 9.375 58.5 9.375H16.5C14.6144 9.375 13.6716 9.375 13.0858 9.96079C12.5 10.5466 12.5 11.4894 12.5 13.375V57.8125" stroke="#ED4322" stroke-width="1.2"/>
<path d="M28.125 31.25L33.6679 36.7929C34.0584 37.1834 34.6916 37.1834 35.0821 36.7929L46.875 25" stroke="#ED4322" stroke-width="1.2" stroke-linecap="round"/>
</svg>
