<svg width="75" height="75" viewBox="0 0 75 75" fill="none" xmlns="http://www.w3.org/2000/svg">
<path fill-rule="evenodd" clip-rule="evenodd" d="M14.8087 45.1323C14.324 45.2622 14.0816 45.3271 13.9805 45.5251C13.8794 45.723 13.9663 45.951 14.1402 46.4071C15.4707 49.897 17.5717 53.0578 20.3022 55.6458C23.809 58.9696 28.2039 61.206 32.9551 62.0844C37.7064 62.9628 42.6104 62.4455 47.0738 60.5952C51.5372 58.7449 55.3688 55.6408 58.105 51.6584C60.8413 47.6761 62.3648 42.9862 62.4914 38.1561C62.6181 33.326 61.3423 28.5627 58.8184 24.4425C56.2946 20.3223 52.6309 17.0217 48.2705 14.9401C44.2114 13.0023 39.7106 12.1981 35.2432 12.6031C34.783 12.6448 34.5529 12.6656 34.4198 12.8319C34.2867 12.9982 34.3176 13.2337 34.3793 13.7047L36.0111 26.1472L38.8712 36.8213L38.8738 36.8307L38.8738 36.8308C38.8862 36.8758 38.9279 37.0276 38.9473 37.1782C38.974 37.3856 38.9906 37.7931 38.7452 38.2182C38.4997 38.6434 38.1385 38.8328 37.9456 38.9133C37.8054 38.9718 37.6532 39.0115 37.6079 39.0233L37.6079 39.0233L37.5984 39.0258L14.8087 45.1323Z" fill="#ED4322" fill-opacity="0.5"/>
<path d="M29.6707 8.28074C29.548 7.82254 29.4866 7.59343 29.3015 7.49048C29.1164 7.38752 28.8943 7.4547 28.4503 7.58905C24.8468 8.67928 21.4673 10.4125 18.4762 12.7077C15.2204 15.2059 12.4886 18.321 10.4367 21.875C8.3848 25.429 7.053 29.3524 6.51735 33.4211C6.02524 37.159 6.21395 40.9524 7.07149 44.6182C7.17717 45.0699 7.23001 45.2958 7.41172 45.4046C7.59344 45.5134 7.82254 45.4521 8.28074 45.3293L36.5341 37.7588C36.9894 37.6368 37.2171 37.5758 37.3206 37.3964C37.4242 37.2171 37.3632 36.9894 37.2412 36.5341L29.6707 8.28074Z" fill="#ED4322"/>
</svg>
