<svg width="45" height="49" viewBox="0 0 45 49" fill="none" xmlns="http://www.w3.org/2000/svg">
<path opacity="0.2" d="M39.8078 8.92285V33.1536H5.19238V8.92285H39.8078Z" fill="black"/>
<path d="M13.8462 24.4993V21.0378C13.8462 20.5788 14.0285 20.1385 14.3531 19.8139C14.6777 19.4894 15.1179 19.307 15.5769 19.307C16.036 19.307 16.4762 19.4894 16.8008 19.8139C17.1253 20.1385 17.3077 20.5788 17.3077 21.0378V24.4993C17.3077 24.9584 17.1253 25.3986 16.8008 25.7232C16.4762 26.0477 16.036 26.2301 15.5769 26.2301C15.1179 26.2301 14.6777 26.0477 14.3531 25.7232C14.0285 25.3986 13.8462 24.9584 13.8462 24.4993ZM22.5 26.2301C22.959 26.2301 23.3993 26.0477 23.7238 25.7232C24.0484 25.3986 24.2308 24.9584 24.2308 24.4993V19.307C24.2308 18.848 24.0484 18.4078 23.7238 18.0832C23.3993 17.7586 22.959 17.5762 22.5 17.5762C22.041 17.5762 21.6007 17.7586 21.2762 18.0832C20.9516 18.4078 20.7692 18.848 20.7692 19.307V24.4993C20.7692 24.9584 20.9516 25.3986 21.2762 25.7232C21.6007 26.0477 22.041 26.2301 22.5 26.2301ZM29.4231 26.2301C29.8821 26.2301 30.3223 26.0477 30.6469 25.7232C30.9715 25.3986 31.1538 24.9584 31.1538 24.4993V17.5762C31.1538 17.1172 30.9715 16.677 30.6469 16.3524C30.3223 16.0278 29.8821 15.8455 29.4231 15.8455C28.964 15.8455 28.5238 16.0278 28.1992 16.3524C27.8747 16.677 27.6923 17.1172 27.6923 17.5762V24.4993C27.6923 24.9584 27.8747 25.3986 28.1992 25.7232C28.5238 26.0477 28.964 26.2301 29.4231 26.2301ZM41.5385 10.6532V31.4224H43.2692C43.7283 31.4224 44.1685 31.6047 44.4931 31.9293C44.8177 32.2539 45 32.6941 45 33.1532C45 33.6122 44.8177 34.0524 44.4931 34.377C44.1685 34.7016 43.7283 34.8839 43.2692 34.8839H24.2308V38.644C25.3856 39.0523 26.3588 39.8557 26.9786 40.9122C27.5983 41.9687 27.8247 43.2102 27.6175 44.4174C27.4104 45.6246 26.7832 46.7197 25.8467 47.5092C24.9103 48.2987 23.7248 48.7317 22.5 48.7317C21.2752 48.7317 20.0897 48.2987 19.1533 47.5092C18.2168 46.7197 17.5896 45.6246 17.3825 44.4174C17.1753 43.2102 17.4017 41.9687 18.0214 40.9122C18.6412 39.8557 19.6144 39.0523 20.7692 38.644V34.8839H1.73077C1.27174 34.8839 0.831513 34.7016 0.506931 34.377C0.182348 34.0524 0 33.6122 0 33.1532C0 32.6941 0.182348 32.2539 0.506931 31.9293C0.831513 31.6047 1.27174 31.4224 1.73077 31.4224H3.46154V10.6532C2.54348 10.6532 1.66303 10.2885 1.01386 9.63931C0.364697 8.99014 0 8.10969 0 7.19163V3.73009C0 2.81204 0.364697 1.93158 1.01386 1.28242C1.66303 0.633251 2.54348 0.268555 3.46154 0.268555H41.5385C42.4565 0.268555 43.337 0.633251 43.9861 1.28242C44.6353 1.93158 45 2.81204 45 3.73009V7.19163C45 8.10969 44.6353 8.99014 43.9861 9.63931C43.337 10.2885 42.4565 10.6532 41.5385 10.6532ZM24.2308 43.5378C24.2308 43.1955 24.1293 42.8608 23.9391 42.5762C23.7489 42.2916 23.4786 42.0698 23.1623 41.9388C22.8461 41.8078 22.4981 41.7735 22.1623 41.8403C21.8266 41.9071 21.5182 42.0719 21.2762 42.3139C21.0341 42.556 20.8693 42.8644 20.8025 43.2001C20.7357 43.5359 20.77 43.8839 20.901 44.2001C21.032 44.5164 21.2538 44.7867 21.5384 44.9769C21.8231 45.167 22.1577 45.2686 22.5 45.2686C22.959 45.2686 23.3993 45.0862 23.7238 44.7616C24.0484 44.437 24.2308 43.9968 24.2308 43.5378ZM3.46154 7.19163H41.5385V3.73009H3.46154V7.19163ZM38.0769 10.6532H6.92308V31.4224H38.0769V10.6532Z" fill="black"/>
</svg>
