<svg width="249" height="256" viewBox="0 0 249 256" fill="none" xmlns="http://www.w3.org/2000/svg">
<path d="M55.6005 188.987L49.6298 193.44L49.0405 192.647L34.9875 191.361L30.6896 185.572L47.9353 187.183L48.6974 188.21L55.6005 188.987ZM65.5502 188.606L37.5211 209.414L33.8429 204.46L61.872 183.651L65.5502 188.606ZM55.7553 175.412L51.2691 189.357L45.2999 188.609L51.3558 169.486L55.7553 175.412Z" fill="black"/>
<path d="M96.0364 205.691L84.9754 229.421L79.5526 226.894L81.3961 222.939L81.1489 222.824C80.0778 223.992 78.8442 224.702 77.4479 224.954C76.0366 225.211 74.6511 225.023 73.2916 224.389C72.9826 224.245 72.6447 224.069 72.2781 223.86C71.8963 223.657 71.5886 223.47 71.3551 223.299L73.7531 218.154C73.9516 218.347 74.2939 218.594 74.7801 218.896C75.2512 219.203 75.7236 219.467 76.1974 219.688C77.2171 220.163 78.237 220.369 79.2571 220.306C80.2621 220.247 81.1764 219.94 81.9999 219.384C82.8235 218.827 83.4705 218.044 83.941 217.035L90.4436 203.084L96.0364 205.691Z" fill="black"/>
<path d="M132.956 208.087C135.505 207.881 137.759 208.263 139.718 209.233C141.678 210.203 143.254 211.655 144.448 213.588C145.63 215.522 146.33 217.836 146.548 220.532C146.766 223.228 146.447 225.631 145.592 227.741C144.725 229.851 143.402 231.543 141.624 232.815C139.846 234.088 137.682 234.827 135.134 235.033C132.585 235.239 130.331 234.857 128.372 233.886C126.412 232.916 124.841 231.458 123.657 229.513C122.463 227.569 121.757 225.249 121.539 222.553C121.321 219.857 121.646 217.46 122.514 215.36C123.37 213.262 124.688 211.576 126.466 210.304C128.244 209.032 130.408 208.293 132.956 208.087ZM133.32 213.016C131.938 213.128 130.814 213.601 129.946 214.435C129.08 215.28 128.472 216.367 128.123 217.695C127.763 219.023 127.647 220.481 127.776 222.066C127.905 223.663 128.254 225.089 128.822 226.342C129.381 227.608 130.155 228.589 131.146 229.284C132.137 229.979 133.324 230.271 134.706 230.159C136.122 230.045 137.268 229.565 138.146 228.718C139.013 227.873 139.626 226.781 139.985 225.44C140.333 224.113 140.443 222.65 140.314 221.053C140.186 219.467 139.843 218.047 139.286 216.792C138.717 215.539 137.937 214.564 136.946 213.869C135.945 213.186 134.736 212.902 133.32 213.016Z" fill="black"/>
<path d="M200.729 157.617L226.153 167.306L222.399 172.353L204.881 165.06L204.739 165.251L216.703 180.012L212.99 185.004L195.493 177.855L195.341 178.06L207.325 192.623L203.561 197.684L186.977 176.11L190.812 170.953L207.939 177.573L208.152 177.285L196.884 162.788L200.729 157.617Z" fill="black"/>
<path d="M172.452 60.2019L193.706 44.9119L197.15 49.6995L193.539 52.2976L193.718 52.5466C195.254 52.1134 196.732 52.1632 198.151 52.6961C199.579 53.2223 200.805 54.1957 201.827 55.6163C202.862 57.0553 203.384 58.5205 203.393 60.0119C203.418 61.5058 202.977 62.8871 202.069 64.1557L202.229 64.3771C203.748 63.9981 205.26 64.1145 206.764 64.7264C208.284 65.3408 209.598 66.4182 210.706 67.9587C212.113 69.9143 212.643 71.9548 212.296 74.0801C211.949 76.2055 210.59 78.1209 208.22 79.8264L193.954 90.0894L190.34 85.0666L203.831 75.3611C205.15 74.4121 205.862 73.3681 205.967 72.2291C206.08 71.0834 205.772 70.0032 205.042 68.9885C204.173 67.78 203.114 67.1066 201.867 66.9682C200.635 66.8323 199.42 67.1957 198.221 68.0585L184.965 77.5947L181.431 72.6827L195.13 62.8278C196.227 62.0381 196.865 61.0756 197.042 59.9403C197.226 58.8141 196.936 57.7207 196.173 56.6598C195.655 55.9403 195 55.4181 194.206 55.0932C193.421 54.7616 192.571 54.6595 191.655 54.7868C190.748 54.9074 189.856 55.2829 188.98 55.9134L176.056 65.2108L172.452 60.2019Z" fill="black"/>
<path d="M128.274 47.6875C126.641 47.3945 125.223 46.8398 124.018 46.0234C122.827 45.1978 121.955 44.1408 121.401 42.8523C120.858 41.5658 120.738 40.078 121.041 38.3891C121.302 36.935 121.786 35.7808 122.494 34.9264C123.201 34.072 124.07 33.4429 125.101 33.039C126.132 32.6351 127.255 32.3921 128.47 32.31C129.699 32.2187 130.951 32.2183 132.228 32.3088C133.766 32.4231 135.016 32.5031 135.978 32.5486C136.941 32.5829 137.66 32.504 138.133 32.3118C138.619 32.1105 138.915 31.719 139.019 31.1373L139.037 31.0367C139.264 29.7728 139.065 28.7269 138.44 27.8989C137.815 27.071 136.798 26.5306 135.388 26.2778C133.901 26.0109 132.663 26.1236 131.674 26.6158C130.696 27.11 129.977 27.7718 129.516 28.6012L123.99 26.7785C124.718 25.2929 125.691 24.1167 126.909 23.2499C128.129 22.3719 129.53 21.8035 131.111 21.5447C132.695 21.2747 134.388 21.3013 136.189 21.6244C137.43 21.8471 138.64 22.2143 139.818 22.7258C140.996 23.2374 142.034 23.92 142.932 24.7737C143.831 25.6162 144.486 26.6631 144.897 27.9144C145.318 29.1676 145.376 30.6499 145.068 32.3612L141.974 49.6086L136.136 48.5611L136.771 45.021L136.569 44.9849C136.072 45.6345 135.431 46.2123 134.648 46.7182C133.878 47.215 132.955 47.5633 131.88 47.7629C130.818 47.9535 129.616 47.9283 128.274 47.6875ZM130.652 43.5076C131.871 43.7263 132.971 43.6755 133.952 43.3551C134.935 43.0235 135.74 42.4982 136.365 41.7791C137.002 41.0621 137.405 40.2282 137.576 39.2775L138.121 36.2407C137.903 36.3632 137.552 36.4504 137.069 36.5024C136.598 36.5563 136.074 36.5835 135.496 36.5838C134.919 36.5841 134.349 36.5743 133.787 36.5542C133.225 36.5342 132.738 36.516 132.325 36.4997C131.397 36.4602 130.55 36.5161 129.784 36.6673C129.018 36.8185 128.383 37.1086 127.879 37.5377C127.376 37.9556 127.055 38.556 126.915 39.3389C126.714 40.4574 126.971 41.3752 127.685 42.0921C128.399 42.809 129.388 43.2809 130.652 43.5076Z" fill="black"/>
<path d="M84.6484 56.6351C82.2563 57.716 79.9658 58.1525 77.7768 57.9446C75.5936 57.7216 73.6218 56.9042 71.8615 55.4925C70.0966 54.0704 68.6503 52.1115 67.5225 49.6158C66.4134 47.1616 65.9061 44.7971 66.0004 42.5223C66.1005 40.2325 66.7605 38.1885 67.9805 36.3902C69.1958 34.5815 70.9425 33.1624 73.2207 32.1329C74.6912 31.4684 76.1864 31.0796 77.7064 30.9663C79.2322 30.838 80.7195 31.0387 82.1686 31.5686C83.6279 32.0938 84.9915 32.9865 86.2593 34.2466C87.5224 35.4965 88.6266 37.1673 89.5719 39.2591L90.351 40.9833L70.7949 49.8205L69.0821 46.0305L83.2483 39.6289C82.7513 38.5566 82.0855 37.704 81.2508 37.0711C80.4114 36.4279 79.4727 36.0477 78.4347 35.9307C77.4071 35.809 76.3548 35.9915 75.2778 36.4782C74.1283 36.9976 73.245 37.7334 72.6279 38.6857C72.006 39.6276 71.6553 40.659 71.5757 41.7799C71.5018 42.8857 71.7007 43.9742 72.1723 45.0455L73.6674 48.3541C74.2945 49.7417 75.0863 50.8179 76.043 51.5828C76.995 52.3372 78.0459 52.7726 79.1958 52.8889C80.3411 52.9949 81.5247 52.7718 82.7466 52.2196C83.5647 51.8499 84.2536 51.4015 84.8134 50.8741C85.3686 50.3365 85.7865 49.7299 86.0673 49.0543C86.3481 48.3787 86.4607 47.6482 86.4051 46.8628L91.922 45.0806C92.2177 46.6179 92.1335 48.115 91.6695 49.5716C91.2111 51.0133 90.3909 52.3441 89.2089 53.5641C88.0222 54.7738 86.502 55.7974 84.6484 56.6351Z" fill="black"/>
<path d="M25.1745 81.2513L29.3656 83.5346L22.1651 96.7516L17.974 94.4684L25.1745 81.2513ZM14.2433 88.2044L17.1953 82.7859L38.7796 94.5447C39.5081 94.9415 40.1267 95.1362 40.6355 95.1287C41.1397 95.1058 41.5623 94.9477 41.9031 94.6546C42.244 94.3615 42.5367 93.9904 42.7813 93.5414C42.9662 93.2021 43.1098 92.8792 43.2121 92.5726C43.3198 92.256 43.3945 92.012 43.4362 91.8406L48.1696 93.2352C48.1118 93.579 47.9959 94.0529 47.8221 94.657C47.6537 95.2511 47.3702 95.9378 46.9716 96.7171C46.2721 98.0959 45.4016 99.2069 44.36 100.05C43.3084 100.888 42.1297 101.365 40.8238 101.482C39.5233 101.588 38.1573 101.245 36.7258 100.452L14.2433 88.2044Z" fill="black"/>
</svg>
